<?xml version="1.0" encoding="UTF-8" standalone="no"?>
<!-- Created with Inkscape (http://www.inkscape.org/) -->

<svg
   xmlns:dc="http://purl.org/dc/elements/1.1/"
   xmlns:cc="http://creativecommons.org/ns#"
   xmlns:rdf="http://www.w3.org/1999/02/22-rdf-syntax-ns#"
   xmlns:svg="http://www.w3.org/2000/svg"
   xmlns="http://www.w3.org/2000/svg"
   xmlns:sodipodi="http://sodipodi.sourceforge.net/DTD/sodipodi-0.dtd"
   xmlns:inkscape="http://www.inkscape.org/namespaces/inkscape"
   width="744.09448819"
   height="1052.3622047"
   id="svg2"
   version="1.1"
   inkscape:version="0.48.1 r9760"
   sodipodi:docname="apex_logo_path.svg">
  <defs
     id="defs4">
    <inkscape:path-effect
       effect="skeletal"
       id="path-effect3015"
       is_visible="true"
       pattern="M 0,3 10,8 10,-2 z"
       copytype="single_stretched"
       prop_scale="1"
       scale_y_rel="false"
       spacing="0"
       normal_offset="0"
       tang_offset="0"
       prop_units="false"
       vertical_pattern="false"
       fuse_tolerance="0" />
    <inkscape:path-effect
       effect="skeletal"
       id="path-effect3011"
       is_visible="true"
       pattern="M 0,0 0,10 10,5 z"
       copytype="single_stretched"
       prop_scale="1"
       scale_y_rel="false"
       spacing="0"
       normal_offset="0"
       tang_offset="0"
       prop_units="false"
       vertical_pattern="false"
       fuse_tolerance="0" />
  </defs>
  <sodipodi:namedview
     id="base"
     pagecolor="#ffffff"
     bordercolor="#666666"
     borderopacity="1.0"
     inkscape:pageopacity="0.0"
     inkscape:pageshadow="2"
     inkscape:zoom="0.98994949"
     inkscape:cx="520.4378"
     inkscape:cy="501.13647"
     inkscape:document-units="px"
     inkscape:current-layer="text2985"
     showgrid="false"
     inkscape:window-width="1280"
     inkscape:window-height="746"
     inkscape:window-x="0"
     inkscape:window-y="26"
     inkscape:window-maximized="1" />
  <metadata
     id="metadata7">
    <rdf:RDF>
      <cc:Work
         rdf:about="">
        <dc:format>image/svg+xml</dc:format>
        <dc:type
           rdf:resource="http://purl.org/dc/dcmitype/StillImage" />
        <dc:title></dc:title>
      </cc:Work>
    </rdf:RDF>
  </metadata>
  <g
     inkscape:label="Layer 1"
     inkscape:groupmode="layer"
     id="layer1">
    <g
       transform="matrix(1.0124546,-0.16387855,0.40603353,0.92197695,0,0)"
       style="font-size:14px;font-style:normal;font-weight:normal;line-height:125%;letter-spacing:0px;word-spacing:0px;fill:#000000;fill-opacity:1;stroke:none;font-family:Sans"
       id="text2985">
      <path
         d="m -16.349762,503.69308 2.110345,0 c 1.15859,8e-5 2.234451,0.57939 3.227586,1.73793 l 0.496552,2.6069 c -3.3e-5,7.5311 -3.889685,20.35868 -11.668966,38.48276 -6.86898,15.97243 -13.158629,28.26208 -18.868965,36.86896 -0.579313,0.0828 -1.200002,0.12414 -1.862069,0.12414 -0.993103,0 -2.068964,-0.12414 -3.227586,-0.37241 1.986207,0.82758 2.979309,3.43448 2.97931,7.82069 -10e-7,2.15171 -0.206897,4.05516 -0.62069,5.71034 1.324137,-1.57242 3.310342,-3.0207 5.958621,-4.34483 2.648267,-1.24138 4.965506,-1.86207 6.951724,-1.86207 0.496539,0 0.951711,0.0414 1.365518,0.12414 -1.075876,-0.74483 -2.441392,-2.06897 -4.096552,-3.97241 l 0.496552,-1.98621 c 0.910333,-2.06896 2.482745,-4.88275 4.717241,-8.44138 2.648258,-4.38619 4.303428,-7.1586 4.965517,-8.31724 7.36549,-14.06893 13.365484,-29.17237 18.0000002,-45.31034 7.1171959,24.33107 15.7654628,47.29656 25.9448278,68.89655 l 10.8,-7.07586 C 17.581211,555.99656 7.3191526,526.28624 0.53299684,495.2517 l -16.88275884,8.44138 m 9.9310347,45.06207 c -3.74e-5,1.24141 -1.5310703,2.73107 -4.5931037,4.46896 -2.731064,1.57245 -4.882786,2.40004 -6.455172,2.48276 l 0.372414,0 c 1.986178,3e-5 4.179279,0.57934 6.57931,1.73793 2.813757,1.32417 4.2620314,2.8552 4.3448276,4.59311 -0.082796,-1.57239 1.324099,-3.1448 4.2206896,-4.71724 2.48271432,-1.40687 4.6344363,-2.19308 6.4551724,-2.35862 l -0.6206896,0 c -1.9034941,3e-5 -3.97245751,-0.57928 -6.2068966,-1.73794 -2.6483146,-1.3241 -4.0138305,-2.81375 -4.0965517,-4.46896"
         style="font-size:144px;font-variant:normal;font-stretch:normal;font-family:Thor;-inkscape-font-specification:Thor"
         id="path3085" />
      <path
         d="m 75.700454,543.16894 0,0.37242 -0.372414,0 0,0.12413 -0.496552,0 c -10.427617,3.97246 -19.075885,7.82073 -25.944827,11.54483 -0.248292,8.77244 -0.37243,17.87588 -0.372414,27.31035 0.08274,0.33103 0.331018,0.70345 0.744827,1.11724 1.241362,0.91034 2.979292,1.48965 5.213794,1.73793 -1.737951,0.33103 -3.600018,1.53103 -5.586207,3.6 -1.903463,2.15172 -2.855186,4.09654 -2.855173,5.83448 l -0.372414,0 c -0.08277,-1.82069 -0.827598,-3.72414 -2.234482,-5.71034 -1.324147,-1.98621 -2.813801,-3.18621 -4.468966,-3.6 1.489648,-0.4138 2.731026,-0.91035 3.724138,-1.48966 0.496542,-0.49655 0.786197,-0.9931 0.868966,-1.48965 -1.1e-5,-28.71721 -0.703459,-49.32409 -2.110345,-61.82069 l -1.24138,-1.24138 c -1.903453,-1.57235 -3.724141,-3.062 -5.462069,-4.46897 l 10.675863,-4.22069 c 0.248263,0.16559 0.662055,0.45525 1.241379,0.86897 l 21.227586,16.88276 c 5.048236,3.97246 9.434439,6.24832 13.158621,6.82758 l -5.337931,7.82069 M 50.003902,528.02411 c -0.41381,5.54488 -0.703465,11.79315 -0.868966,18.74483 4.055153,-1.98616 9.682733,-4.38616 16.882759,-7.2 -4.71727,-2.73098 -10.055195,-6.57925 -16.013793,-11.54483"
         style="font-size:144px;font-variant:normal;font-stretch:normal;font-family:Thor;-inkscape-font-specification:Thor"
         id="path3087" />
      <path
         d="m 124.93666,585.62411 c -0.33108,1.07587 -1.82073,1.6138 -4.46896,1.6138 -5.79314,0 -16.17934,-1.98621 -31.158626,-5.95862 l 0.248276,-1.6138 c -9e-6,-24.74479 -0.620698,-43.86201 -1.862069,-57.35172 -3.393107,-0.74476 -5.255174,-1.19994 -5.586207,-1.36552 l 7.82069,-8.56551 c 14.399976,3.80696 24.662036,5.71041 30.786206,5.71034 2.81375,7e-5 4.63444,-1.15855 5.46207,-3.47586 l -1.48966,11.7931 c -0.74487,0.91041 -2.56555,1.36558 -5.46206,1.36552 -5.13107,6e-5 -12.70348,-1.15856 -22.717246,-3.47586 l -0.993103,16.26207 c -0.08277,1.24142 0.579294,2.11038 1.986207,2.60689 7.779282,1.57246 13.820662,2.35866 18.124142,2.35862 2.81375,4e-5 4.75858,-0.57927 5.83448,-1.73793 l -1.48966,10.42759 c -0.74486,0.91037 -2.60693,1.36555 -5.5862,1.36552 -4.63452,3e-5 -11.0483,-0.86894 -19.241383,-2.6069 -0.24829,5.71037 -0.413807,11.71037 -0.496552,18 0.248262,0.99312 1.034468,1.65518 2.358621,1.98621 11.172384,2.73104 19.406864,4.09656 24.703444,4.09655 2.48272,1e-5 3.84823,-0.37241 4.09656,-1.11724 l 0.37241,0.12413 -1.24138,9.55862"
         style="font-size:144px;font-variant:normal;font-stretch:normal;font-family:Thor;-inkscape-font-specification:Thor"
         id="path3089" />
      <path
         d="m 135.12567,583.63791 0,0 c 0.49655,0.0828 0.91034,0.0828 1.24138,0 1.07585,-0.41379 6.45516,-9.31034 16.13793,-26.68966 -7.69657,-13.32409 -13.53104,-26.73098 -17.50345,-40.22069 l 8.06897,-8.06896 c 4.46895,12.82765 9.72411,25.03453 15.76551,36.62069 5.71032,-10.75857 10.51031,-20.77235 14.4,-30.04138 -4e-5,-0.82752 -1.2828,-1.73786 -3.84827,-2.73104 1.82065,0.0828 4.05513,-0.57923 6.70345,-1.9862 2.64822,-1.48958 4.13788,-3.06199 4.46896,-4.71724 l 0.49655,0.12413 c -0.16556,0.49663 -0.24832,1.07594 -0.24827,1.73793 -5e-5,4.38629 1.11719,7.32421 3.35172,8.8138 -1.07591,7e-5 -1.9035,0.0415 -2.48276,0.12414 -0.91039,0.41386 -1.44832,0.95179 -1.61379,1.61379 l -0.49655,0 c -4.22074,10.67592 -9.6828,22.26211 -16.38621,34.75862 3.88962,6.70347 7.86203,12.91036 11.91724,18.62069 1.40685,2.06898 3.43444,4.71725 6.08276,7.94483 2.23443,4.05517 4.92408,6.08276 8.06897,6.08275 0.24821,10e-6 1.19994,-0.20689 2.85517,-0.62068 l -15.64138,7.82068 -2.97931,-4.34482 c -1.0759,-1.48966 -3.269,-4.5931 -6.57931,-9.31035 l -10.05517,-14.77241 c -4.63451,8.19312 -9.22761,15.72414 -13.77931,22.5931 -0.33105,0.49655 -0.41381,1.15862 -0.24828,1.98621 0.41378,0.82758 1.11723,1.65517 2.11035,2.48276 -1.2414,-0.33104 -2.15174,-0.49656 -2.73104,-0.49655 -3.64139,-10e-6 -6.49655,1.11723 -8.56552,3.35172 l -0.37241,-0.37241 c 0.74483,-0.8276 1.11724,-2.60691 1.11724,-5.33793 0,-2.89656 -0.41379,-4.8 -1.24138,-5.71035 l 0.37242,-0.24828 c 0.49655,0.4138 1.03448,0.74483 1.61379,0.99311"
         style="font-size:144px;font-variant:normal;font-stretch:normal;font-family:Thor;-inkscape-font-specification:Thor"
         id="path3091" />
    </g>
    <g
       style="font-size:14px;font-style:normal;font-weight:normal;line-height:125%;letter-spacing:0px;word-spacing:0px;fill:#000000;fill-opacity:1;stroke:none;font-family:Sans"
       id="text2993">
      <path
         d="m 134.62857,619.66165 c -0.12801,0.64002 -0.33601,1.66402 -0.624,3.072 -0.25601,1.40802 -0.52801,2.99201 -0.816,4.752 -0.25601,1.76001 -0.51201,3.58401 -0.768,5.472 -0.25601,1.85601 -0.44801,3.552 -0.576,5.088 -0.096,1.568 -0.096,2.848 0,3.84 0.096,0.992 0.35199,1.488 0.768,1.488 0.064,0 0.15999,-0.064 0.288,-0.192 0.15999,-0.096 0.25599,-0.176 0.288,-0.24 0.41599,-2.4 0.87999,-4.752 1.392,-7.056 0.51199,-2.33599 1.13599,-4.70399 1.872,-7.104 0.032,0.25601 0.032,0.60801 0,1.056 -1e-5,0.41601 0.016,0.83201 0.048,1.248 0.064,0.38401 0.15999,0.72001 0.288,1.008 0.12799,0.28801 0.38399,0.43201 0.768,0.432 0.35199,-1.72799 0.60799,-3.40799 0.768,-5.04 0.19199,-1.66399 0.46399,-3.37598 0.816,-5.136 0.064,-0.38398 0.22399,-0.73598 0.48,-1.056 0.25599,-0.35198 0.55998,-0.63998 0.912,-0.864 0.35198,-0.25598 0.71998,-0.44798 1.104,-0.576 0.41598,-0.15998 0.79998,-0.23998 1.152,-0.24 0.99198,2e-5 1.99998,0.19202 3.024,0.576 1.05598,0.38402 2.09598,0.83202 3.12,1.344 1.02398,0.51202 2.01597,1.02402 2.976,1.536 0.95997,0.51202 1.88797,0.89602 2.784,1.152 0.15997,0.064 0.54397,0.19202 1.152,0.384 0.63997,0.16002 1.32797,0.35202 2.064,0.576 0.73597,0.19202 1.40797,0.38402 2.016,0.576 0.63996,0.16001 1.05596,0.25601 1.248,0.288 0.95996,0.35201 2.11196,0.84801 3.456,1.488 1.37596,0.60801 2.79996,1.21601 4.272,1.824 1.50395,0.60801 2.95995,1.15201 4.368,1.632 1.43995,0.44801 2.70395,0.67201 3.792,0.672 0.0319,-0.19199 -0.0481,-0.47999 -0.24,-0.864 -0.16005,-0.38399 -0.38405,-0.73599 -0.672,-1.056 -0.28805,-0.35199 -0.60805,-0.62399 -0.96,-0.816 -0.32005,-0.22399 -0.60805,-0.27199 -0.864,-0.144 -1.18405,-1.27999 -2.49605,-2.36799 -3.936,-3.264 -1.44004,-0.92798 -2.94404,-1.79198 -4.512,-2.592 -1.53604,-0.79998 -3.08804,-1.58398 -4.656,-2.352 -1.53603,-0.79998 -2.99203,-1.71198 -4.368,-2.736 -0.35203,-0.25598 -0.83203,-0.52798 -1.44,-0.816 -0.60803,-0.31998 -1.20003,-0.63998 -1.776,-0.96 -0.57603,-0.35197 -1.07203,-0.68797 -1.488,-1.008 -0.38403,-0.35197 -0.54403,-0.70397 -0.48,-1.056 0.032,-0.032 0.048,-0.064 0.048,-0.096 0.032,-0.064 0.048,-0.11197 0.048,-0.144 0.12797,-0.096 0.33597,-0.23997 0.624,-0.432 0.31997,-0.22397 0.63997,-0.44797 0.96,-0.672 0.35197,-0.25597 0.67197,-0.49597 0.96,-0.72 0.31997,-0.22397 0.54397,-0.38397 0.672,-0.48 0.032,-0.032 0.12797,-0.096 0.288,-0.192 0.19197,-0.12797 0.36797,-0.23997 0.528,-0.336 0.15997,-0.096 0.30397,-0.17597 0.432,-0.24 0.15997,-0.096 0.25597,-0.14397 0.288,-0.144 0.064,-0.032 0.38397,-0.08 0.96,-0.144 0.57597,-0.064 1.27997,-0.15997 2.112,-0.288 0.83196,-0.12797 1.72796,-0.28797 2.688,-0.48 0.99196,-0.22397 1.90396,-0.46397 2.736,-0.72 0.83196,-0.28797 1.55196,-0.60797 2.16,-0.96 0.60796,-0.35197 0.95996,-0.75197 1.056,-1.2 0.064,-0.44797 0.048,-0.89597 -0.048,-1.344 -0.096,-0.47996 -0.22404,-0.89596 -0.384,-1.248 l 4.128,-2.256 c 0.032,4e-5 0.064,-0.048 0.096,-0.144 0.0319,-0.12796 0.064,-0.22396 0.096,-0.288 0.096,-0.60796 0.048,-1.02396 -0.144,-1.248 -0.16005,-0.22396 -0.40005,-0.35196 -0.72,-0.384 -0.28805,-0.032 -0.64005,-0.016 -1.056,0.048 -0.38404,0.064 -0.72004,0.096 -1.008,0.096 0.096,-0.47996 0.25596,-0.92796 0.48,-1.344 0.22396,-0.41596 0.38395,-0.86396 0.48,-1.344 0.12795,-0.70396 -0.11204,-1.27996 -0.72,-1.728 -0.60804,-0.47995 -1.34404,-0.84795 -2.208,-1.104 -0.86404,-0.28795 -1.74404,-0.47995 -2.64,-0.576 -0.89604,-0.12795 -1.55204,-0.19195 -1.968,-0.192 l -0.672,0 c -0.38404,5e-5 -0.83204,5e-5 -1.344,0 -0.48004,-0.032 -0.99203,-0.048 -1.536,-0.048 l -1.248,0 c -2.08003,5e-5 -4.17603,0.12805 -6.288,0.384 -2.08002,0.25605 -4.17602,0.59205 -6.288,1.008 -2.11202,0.38405 -4.22402,0.83204 -6.336,1.344 -2.08001,0.48004 -4.17601,0.94404 -6.288,1.392 l -0.096,0.48 c -0.096,0.54404 -0.14401,0.92804 -0.144,1.152 -1e-5,0.19204 0.064,0.30404 0.192,0.336 0.15999,0.032 0.35199,0.016 0.576,-0.048 0.22399,-0.064 0.52799,-0.096 0.912,-0.096 l -0.144,0.912 -6,5.04 c 0,4e-5 -0.016,0.032 -0.048,0.096 -0.032,0.064 -0.048,0.11203 -0.048,0.144 -0.032,0.032 -0.048,0.08 -0.048,0.144 0.032,0.032 0.048,0.048 0.048,0.048 0.032,0.096 0.128,0.25603 0.288,0.48 0.192,0.22403 0.336,0.36803 0.432,0.432 l 0.144,0 0.288,0 c 0.16,-0.032 0.464,-0.096 0.912,-0.192 0.47999,-0.096 0.81599,-0.17597 1.008,-0.24 -0.41601,0.032 -0.67201,0.016 -0.768,-0.048 -0.096,-0.096 -0.128,-0.20797 -0.096,-0.336 0.032,-0.12797 0.11199,-0.27197 0.24,-0.432 0.12799,-0.15996 0.20799,-0.31996 0.24,-0.48 0.22399,4e-5 0.70399,0.048 1.44,0.144 0.76799,0.064 1.53599,0.17604 2.304,0.336 0.79999,0.12803 1.50399,0.30403 2.112,0.528 0.60799,0.22403 0.87999,0.46403 0.816,0.72 l -0.096,0.432 c -0.96001,3e-5 -1.85601,-0.15997 -2.688,-0.48 -0.83201,-0.35197 -1.72801,-0.52797 -2.688,-0.528 -0.032,0.22403 -0.048,0.44803 -0.048,0.672 0.032,0.19203 0.17599,0.32003 0.432,0.384 l 4.608,1.824 c -1e-5,3e-5 -1e-5,0.032 0,0.096 0.032,0.032 0.048,0.064 0.048,0.096 -0.064,0.25603 -0.14401,0.44803 -0.24,0.576 -0.096,0.12803 -0.20801,0.27203 -0.336,0.432 -0.12801,0.16003 -0.24001,0.35203 -0.336,0.576 -0.096,0.22403 -0.19201,0.54403 -0.288,0.96 l 0.912,0 c -0.032,0.22403 -0.096,0.59203 -0.192,1.104 -0.096,0.51203 -0.19201,1.05603 -0.288,1.632 -0.064,0.57603 -0.14401,1.12002 -0.24,1.632 -0.064,0.51202 -0.12801,0.88002 -0.192,1.104 -1e-5,0.064 -0.048,0.20802 -0.144,0.432 -0.096,0.22402 -0.20801,0.46402 -0.336,0.72 -0.096,0.25602 -0.19201,0.49602 -0.288,0.72 -0.096,0.19202 -0.14401,0.32002 -0.144,0.384 m 20.688,1.392 c 0.064,2e-5 0.17597,2e-5 0.336,0 0.15997,-0.032 0.27197,-0.048 0.336,-0.048 0.67197,2e-5 1.21597,0.12802 1.632,0.384 0.44797,0.22402 0.95997,0.56002 1.536,1.008 -0.064,2e-5 -0.22403,0.016 -0.48,0.048 -0.22403,2e-5 -0.36803,2e-5 -0.432,0 -0.64003,2e-5 -1.15203,-0.15998 -1.536,-0.48 -0.35203,-0.35198 -0.81603,-0.65598 -1.392,-0.912 m -7.248,-2.304 0.432,0 c 0.38398,2e-5 0.79998,0.064 1.248,0.192 0.44797,0.096 0.73597,0.33602 0.864,0.72 l -0.24,0 c -0.38402,2e-5 -0.80002,-0.096 -1.248,-0.288 -0.41602,-0.19198 -0.76802,-0.39998 -1.056,-0.624 m 5.712,-1.344 c -3e-5,2e-5 0.016,2e-5 0.048,0 0.064,-0.032 0.11197,-0.048 0.144,-0.048 0.032,2e-5 0.08,0.016 0.144,0.048 0.064,2e-5 0.096,2e-5 0.096,0 0.064,0.032 0.14397,0.096 0.24,0.192 0.096,0.096 0.14397,0.17602 0.144,0.24 -0.032,2e-5 -0.08,0.016 -0.144,0.048 -0.032,2e-5 -0.064,2e-5 -0.096,0 -0.032,2e-5 -0.08,2e-5 -0.144,0 -0.064,-0.032 -0.096,-0.048 -0.096,-0.048 -0.032,-0.032 -0.096,-0.096 -0.192,-0.192 -0.096,-0.096 -0.14403,-0.17598 -0.144,-0.24 m -3.936,-0.912 c 0.25597,2e-5 0.35197,0.14402 0.288,0.432 -0.064,0.32002 -0.22402,0.48002 -0.48,0.48 -0.25602,2e-5 -0.35202,-0.15998 -0.288,-0.48 0.064,-0.28798 0.22398,-0.43198 0.48,-0.432 m 3.648,0 c 0.25597,2e-5 0.35197,0.14402 0.288,0.432 -0.064,0.32002 -0.22403,0.48002 -0.48,0.48 -0.25603,2e-5 -0.35203,-0.15998 -0.288,-0.48 0.064,-0.28798 0.22397,-0.43198 0.48,-0.432 m -4.08,0 c -0.096,0.16002 -0.19202,0.24002 -0.288,0.24 -0.096,2e-5 -0.16002,-0.08 -0.192,-0.24 -0.032,-0.15998 0.064,-0.23998 0.288,-0.24 0.22398,2e-5 0.28798,0.08 0.192,0.24 m 2.352,-0.48 c -0.096,0.16002 -0.19203,0.24002 -0.288,0.24 -0.096,2e-5 -0.16003,-0.064 -0.192,-0.192 -3e-5,-0.15998 0.096,-0.23998 0.288,-0.24 0.22397,2e-5 0.28797,0.064 0.192,0.192 m -1.152,-0.912 c 0.22397,3e-5 0.30397,0.16003 0.24,0.48 -0.064,0.28802 -0.20803,0.43202 -0.432,0.432 -0.25603,2e-5 -0.35203,-0.14398 -0.288,-0.432 0.064,-0.31997 0.22397,-0.47997 0.48,-0.48 m -3.264,-0.96 c 0.064,3e-5 0.17598,0.016 0.336,0.048 0.19198,3e-5 0.31998,3e-5 0.384,0 -0.12802,0.28803 -0.33602,0.44803 -0.624,0.48 -0.25602,0.032 -0.48002,0.048 -0.672,0.048 -0.064,3e-5 -0.17602,3e-5 -0.336,0 -0.12802,-0.032 -0.22402,-0.048 -0.288,-0.048 0.096,-0.28797 0.27198,-0.44797 0.528,-0.48 0.25598,-0.032 0.47998,-0.048 0.672,-0.048 m 4.32,-2.256 c 0.064,3e-5 0.14397,0.016 0.24,0.048 0.12797,3e-5 0.20797,3e-5 0.24,0 -0.12803,0.16003 -0.32003,0.32003 -0.576,0.48 -0.25603,0.12803 -0.51203,0.25603 -0.768,0.384 -0.25603,0.12803 -0.51203,0.24003 -0.768,0.336 -0.22402,0.064 -0.38402,0.11203 -0.48,0.144 0.032,-0.032 0.032,-0.064 0,-0.096 -2e-5,-0.032 -2e-5,-0.064 0,-0.096 0.096,-0.44797 0.38398,-0.75197 0.864,-0.912 0.47997,-0.19197 0.89597,-0.28797 1.248,-0.288 m -11.664,-1.44 c 0.25598,3e-5 0.55998,0.064 0.912,0.192 0.35198,0.096 0.49598,0.30403 0.432,0.624 l -0.048,0.192 c -0.064,0.064 -0.24002,0.16003 -0.528,0.288 -0.25602,0.096 -0.41602,0.16003 -0.48,0.192 -0.096,-0.25597 -0.19202,-0.49597 -0.288,-0.72 -0.064,-0.22397 -0.064,-0.47997 0,-0.768 m 1.68,-0.816 c 0.83198,-0.22397 1.50398,-0.35197 2.016,-0.384 0.54398,-0.064 1.18398,-0.096 1.92,-0.096 0.12798,3e-5 0.38398,0.016 0.768,0.048 0.41598,3e-5 0.68798,3e-5 0.816,0 -0.25602,0.44803 -0.65602,0.72003 -1.2,0.816 -0.54402,0.096 -1.08802,0.14403 -1.632,0.144 l -0.864,0 c -0.35202,3e-5 -0.68802,3e-5 -1.008,0 -0.32002,-0.032 -0.59202,-0.20797 -0.816,-0.528 m -1.584,-1.344 1.2,-5.952 c 0.60798,4e-5 1.66398,-0.016 3.168,-0.048 1.53598,-0.064 3.15198,-0.11196 4.848,-0.144 1.69597,-0.064 3.29597,-0.11196 4.8,-0.144 1.53597,-0.064 2.60797,-0.096 3.216,-0.096 l 1.056,0 c 0.19197,4e-5 0.46397,0.016 0.816,0.048 0.38397,0.032 0.76797,0.096 1.152,0.192 0.38396,0.064 0.70396,0.17604 0.96,0.336 0.28796,0.16004 0.41596,0.35204 0.384,0.576 -4e-5,0.032 -0.016,0.064 -0.048,0.096 -0.032,0.032 -0.048,0.064 -0.048,0.096 -0.22404,0.12804 -0.62404,0.33604 -1.2,0.624 -0.57603,0.25604 -1.18403,0.52804 -1.824,0.816 -0.64003,0.28804 -1.24803,0.56004 -1.824,0.816 -0.54403,0.22403 -0.92803,0.38403 -1.152,0.48 -0.096,0.032 -0.35203,0.12803 -0.768,0.288 -0.41603,0.16003 -0.88003,0.35203 -1.392,0.576 -0.51203,0.19203 -1.02403,0.38403 -1.536,0.576 -0.51203,0.16003 -0.92803,0.28803 -1.248,0.384 -0.19203,0.064 -0.48003,0.16003 -0.864,0.288 -0.35202,0.12803 -0.54402,0.19203 -0.576,0.192 l -9.12,0 m 25.968,-3.264 c 0.25596,4e-5 0.51196,0.048 0.768,0.144 0.25596,0.064 0.35196,0.27204 0.288,0.624 -0.096,0.41603 -0.46404,0.78403 -1.104,1.104 -0.64004,0.32003 -1.34404,0.59203 -2.112,0.816 -0.76804,0.19203 -1.50404,0.35203 -2.208,0.48 -0.67204,0.096 -1.12004,0.14403 -1.344,0.144 -0.064,3e-5 -0.17604,3e-5 -0.336,0 -0.16003,-0.032 -0.27203,-0.048 -0.336,-0.048 0.35197,-0.35197 0.78396,-0.71997 1.296,-1.104 0.54396,-0.38397 1.10396,-0.73597 1.68,-1.056 0.60796,-0.31997 1.21596,-0.57596 1.824,-0.768 0.60796,-0.22396 1.13596,-0.33596 1.584,-0.336 m -34.032,-1.056 0.864,-0.72 c 0.032,-0.032 0.22399,-0.08 0.576,-0.144 0.38399,-0.064 0.81599,-0.14396 1.296,-0.24 0.51199,-0.096 1.02399,-0.19196 1.536,-0.288 0.54399,-0.096 0.99199,-0.17596 1.344,-0.24 0.096,-0.032 0.35199,-0.048 0.768,-0.048 0.44799,4e-5 0.73599,4e-5 0.864,0 -0.096,0.44804 -0.24001,0.80004 -0.432,1.056 -0.16001,0.25604 -0.35201,0.49604 -0.576,0.72 -0.19201,0.19204 -0.40001,0.40004 -0.624,0.624 -0.22401,0.19204 -0.43201,0.48004 -0.624,0.864 l -4.992,-1.584 m 4.992,-3.168 -0.096,0.624 -1.824,0 c 0.096,-0.25596 0.30399,-0.41596 0.624,-0.48 0.35199,-0.096 0.65599,-0.14396 0.912,-0.144 l 0.384,0 m 4.464,-2.256 c 0.35198,4e-5 0.94398,0.016 1.776,0.048 0.83198,4e-5 1.69598,0.016 2.592,0.048 0.92798,4e-5 1.79198,0.016 2.592,0.048 0.83198,4e-5 1.42398,4e-5 1.776,0 0.096,4e-5 0.28797,0.016 0.576,0.048 0.31997,0.032 0.65597,0.08 1.008,0.144 0.35197,0.032 0.70397,0.08 1.056,0.144 0.38397,0.064 0.68797,0.11204 0.912,0.144 0.032,4e-5 0.22397,0.032 0.576,0.096 0.35197,0.032 0.71997,0.096 1.104,0.192 0.38397,0.096 0.71997,0.24004 1.008,0.432 0.31997,0.16004 0.46397,0.36804 0.432,0.624 l -12.96,0 c -0.89602,4e-5 -1.58402,-0.096 -2.064,-0.288 -0.44802,-0.22396 -0.57602,-0.78396 -0.384,-1.68 m -2.88,1.056 0.912,0 -0.528,0.48 -0.384,-0.48 m 19.776,-0.672 4.56,0 -0.672,-1.152 c -2.36803,-0.15996 -4.76803,-0.36796 -7.2,-0.624 -2.43203,-0.25596 -4.76803,-0.65596 -7.008,-1.2 0.44798,-0.31995 1.11998,-0.54395 2.016,-0.672 0.89597,-0.15995 1.85597,-0.25595 2.88,-0.288 1.05597,-0.0639 2.06397,-0.0799 3.024,-0.048 0.95997,0.0321 1.67997,0.048 2.16,0.048 0.95997,5e-5 1.96796,0.0161 3.024,0.048 1.05596,5e-5 2.07996,0.096 3.072,0.288 1.02396,0.19205 1.95196,0.51204 2.784,0.96 0.83196,0.44804 1.48796,1.10404 1.968,1.968 -0.48004,0.12804 -0.96004,0.38404 -1.44,0.768 -0.44804,0.35204 -0.84804,0.70404 -1.2,1.056 l -6.864,0 c -0.25603,4e-5 -0.49603,-0.12796 -0.72,-0.384 -0.22403,-0.25596 -0.35203,-0.51196 -0.384,-0.768 m -21.168,-0.24 0.24,0 c -0.064,0.064 -0.24001,0.16004 -0.528,0.288 -0.25601,0.096 -0.41601,0.16004 -0.48,0.192 l -0.24,0 -0.24,0 c 0.096,-0.064 0.27199,-0.14396 0.528,-0.24 0.25599,-0.12796 0.41599,-0.20796 0.48,-0.24 l 0.24,0"
         style="font-size:48px;font-style:italic;font-variant:normal;font-stretch:normal;font-family:Incubus;-inkscape-font-specification:Incubus Italic"
         id="path3074" />
      <path
         d="m 180.87357,616.44565 c -0.192,0.96002 -0.288,2.04802 -0.288,3.264 0.032,1.18402 0.144,2.41602 0.336,3.696 0.224,1.24802 0.528,2.51201 0.912,3.792 0.416,1.24801 0.896,2.41601 1.44,3.504 0.576,1.08801 1.232,2.04801 1.968,2.88 0.76799,0.83201 1.58399,1.45601 2.448,1.872 0.44799,0.19201 0.94399,0.336 1.488,0.432 0.54399,0.064 1.10399,0.096 1.68,0.096 0.57599,0.032 1.13599,0.032 1.68,0 0.57599,0 1.08799,0 1.536,0 0.15999,0 0.44799,0 0.864,0 0.44798,0 0.91198,-0.016 1.392,-0.048 0.51198,0 0.97598,0 1.392,0 0.44798,0 0.75198,0 0.912,0 1.50398,-0.38399 2.87998,-1.15199 4.128,-2.304 1.27998,-1.15199 2.43197,-2.51199 3.456,-4.08 1.05597,-1.59999 1.98397,-3.32799 2.784,-5.184 0.79997,-1.85598 1.48797,-3.66398 2.064,-5.424 0.60797,-1.79198 1.10397,-3.45597 1.488,-4.992 0.38397,-1.56797 0.68797,-2.84797 0.912,-3.84 0.67197,-3.39197 0.65597,-6.41596 -0.048,-9.072 -0.70403,-2.68796 -2.17603,-5.13596 -4.416,-7.344 -0.41603,0.064 -1.00803,0.096 -1.776,0.096 -0.76803,-0.032 -1.50403,-0.12795 -2.208,-0.288 -0.70402,-0.15995 -1.31202,-0.41595 -1.824,-0.768 -0.48002,-0.35195 -0.65602,-0.86395 -0.528,-1.536 -0.064,5e-5 -0.048,0.0161 0.048,0.048 0.096,5e-5 0.11198,0.0161 0.048,0.048 l -1.056,0.48 c -0.032,0.0321 -0.12802,0.096 -0.288,0.192 -0.16002,0.096 -0.33602,0.20805 -0.528,0.336 -0.19202,0.096 -0.36802,0.19205 -0.528,0.288 -0.16002,0.096 -0.25602,0.14405 -0.288,0.144 -2.62402,1.05605 -5.00801,2.38405 -7.152,3.984 -2.11201,1.60004 -3.96801,3.42404 -5.568,5.472 -1.60001,2.01604 -2.944,4.22403 -4.032,6.624 -1.088,2.40003 -1.904,4.94403 -2.448,7.632 m 18.624,12.768 c -2e-5,0.032 -2e-5,0.08 0,0.144 -2e-5,0.032 -2e-5,0.064 0,0.096 -0.096,0.44801 -0.35202,0.89601 -0.768,1.344 -0.41602,0.41601 -0.91202,0.80001 -1.488,1.152 -0.54402,0.35201 -1.10402,0.64001 -1.68,0.864 -0.54401,0.22401 -0.99201,0.33601 -1.344,0.336 0.032,-0.22399 0.08,-0.38399 0.144,-0.48 0.096,-0.096 0.20799,-0.15999 0.336,-0.192 0.12799,-0.064 0.25599,-0.11199 0.384,-0.144 0.12798,-0.064 0.28798,-0.14399 0.48,-0.24 0.15998,-0.096 0.41598,-0.27199 0.768,-0.528 0.38398,-0.28799 0.78398,-0.59199 1.2,-0.912 0.44798,-0.31999 0.84798,-0.60799 1.2,-0.864 0.35198,-0.28799 0.60798,-0.47999 0.768,-0.576 m 3.744,0.48 0.576,0 c -0.064,0.35201 -0.22402,0.68801 -0.48,1.008 -0.25602,0.32001 -0.54402,0.64001 -0.864,0.96 -0.32002,0.28801 -0.65602,0.56001 -1.008,0.816 -0.32002,0.22401 -0.59202,0.41601 -0.816,0.576 -2e-5,1e-5 -0.032,0.016 -0.096,0.048 -0.064,1e-5 -0.11202,1e-5 -0.144,0 -0.032,1e-5 -0.08,1e-5 -0.144,0 -0.032,-0.032 -0.064,-0.048 -0.096,-0.048 0.60798,-0.38399 1.18398,-0.91199 1.728,-1.584 0.54398,-0.67199 0.99198,-1.26399 1.344,-1.776 m -13.728,1.44 c 0.032,-0.064 0.11199,-0.14399 0.24,-0.24 0.15999,-0.12799 0.27199,-0.20799 0.336,-0.24 l 0.48,0 5.472,-0.96 0.24,0 0.24,0 c -0.70402,0.83201 -1.44001,1.37601 -2.208,1.632 -0.73601,0.22401 -1.56801,0.33601 -2.496,0.336 -0.41601,10e-6 -0.84801,10e-6 -1.296,0 -0.41601,10e-6 -0.75201,-0.17599 -1.008,-0.528 m -3.312,-9.84 0.048,-0.24 c 0.096,-0.28798 0.20799,-0.65598 0.336,-1.104 0.12799,-0.44798 0.25599,-0.89598 0.384,-1.344 0.15999,-0.47998 0.30399,-0.89598 0.432,-1.248 0.12799,-0.35198 0.19199,-0.55998 0.192,-0.624 0.064,-0.15998 0.19199,-0.41598 0.384,-0.768 0.19199,-0.38397 0.31999,-0.60797 0.384,-0.672 0.032,-0.064 0.096,-0.11197 0.192,-0.144 0.096,-0.064 0.15999,-0.096 0.192,-0.096 -0.22401,1.15202 -0.44801,2.33602 -0.672,3.552 -0.19201,1.21602 -0.32001,2.41602 -0.384,3.6 -0.032,1.15202 0.048,2.28802 0.24,3.408 0.19199,1.12001 0.55999,2.16001 1.104,3.12 -0.032,10e-6 -0.11201,0.016 -0.24,0.048 -0.096,10e-6 -0.17601,10e-6 -0.24,0 -0.64001,10e-6 -1.13601,-0.30399 -1.488,-0.912 -0.35201,-0.60799 -0.60801,-1.32799 -0.768,-2.16 -0.16001,-0.83198 -0.24001,-1.66398 -0.24,-2.496 -1e-5,-0.83198 0.048,-1.47198 0.144,-1.92 m 3.168,0.96 0.144,-0.72 0.576,1.92 0.672,-0.96 c 0.31999,-1.98398 0.68799,-3.99998 1.104,-6.048 0.44799,-2.04797 1.03999,-4.06397 1.776,-6.048 0.73599,-2.01597 1.64798,-3.95197 2.736,-5.808 1.11998,-1.85596 2.54398,-3.56796 4.272,-5.136 l 0.24,0 c 0.95998,4e-5 1.88798,0.17604 2.784,0.528 0.89598,0.32004 1.64797,0.78404 2.256,1.392 0.60797,0.60804 1.05597,1.34404 1.344,2.208 0.31997,0.83204 0.36797,1.74404 0.144,2.736 -0.16003,0.86403 -0.46403,2.01603 -0.912,3.456 -0.41603,1.44003 -0.96003,2.99203 -1.632,4.656 -0.67202,1.66402 -1.45602,3.34402 -2.352,5.04 -0.86402,1.69602 -1.82402,3.24802 -2.88,4.656 -1.05602,1.37602 -2.19202,2.49601 -3.408,3.36 -1.21601,0.86401 -2.48001,1.29601 -3.792,1.296 -0.80001,10e-6 -1.44001,-0.20799 -1.92,-0.624 -0.48001,-0.44799 -0.83201,-0.99199 -1.056,-1.632 -0.19201,-0.67199 -0.28801,-1.39198 -0.288,-2.16 -1e-5,-0.76798 0.064,-1.47198 0.192,-2.112 m 8.4,6 c 0.25598,10e-6 0.35198,0.16001 0.288,0.48 -0.064,0.32001 -0.22402,0.48001 -0.48,0.48 -0.25602,10e-6 -0.35202,-0.15999 -0.288,-0.48 0.064,-0.31999 0.22398,-0.47999 0.48,-0.48 m 13.536,-19.68 c -0.032,0.12803 -0.08,0.36803 -0.144,0.72 -0.064,0.35203 -0.12803,0.72003 -0.192,1.104 -0.064,0.38403 -0.12803,0.75203 -0.192,1.104 -0.064,0.32003 -0.11203,0.54403 -0.144,0.672 -0.064,0.32003 -0.17603,0.80003 -0.336,1.44 -0.16003,0.64003 -0.35203,1.36003 -0.576,2.16 -0.22403,0.76802 -0.48003,1.58402 -0.768,2.448 -0.28803,0.83202 -0.60803,1.61602 -0.96,2.352 -0.32003,0.73602 -0.65603,1.37602 -1.008,1.92 -0.35203,0.51202 -0.70403,0.83202 -1.056,0.96 l 0.144,-0.72 c 0.47997,-2.36798 1.16797,-4.75198 2.064,-7.152 0.92797,-2.39997 1.98397,-4.73597 3.168,-7.008 m -26.16,5.76 c 0.31999,-1.63197 0.86399,-3.31197 1.632,-5.04 0.79999,-1.72797 1.87199,-3.24797 3.216,-4.56 0.28799,-0.25596 0.63999,-0.57596 1.056,-0.96 0.41599,-0.38396 0.83199,-0.75196 1.248,-1.104 0.44799,-0.35196 0.83199,-0.65596 1.152,-0.912 0.31999,-0.25596 0.51199,-0.38396 0.576,-0.384 l 0.48,0 c -0.70401,1.47204 -1.50401,2.94404 -2.4,4.416 -0.89601,1.44003 -1.79201,2.89603 -2.688,4.368 -0.86401,1.44003 -1.68001,2.91203 -2.448,4.416 -0.73601,1.47202 -1.32801,2.99202 -1.776,4.56 l -0.48,0 c -0.032,2e-5 -0.048,-0.11198 -0.048,-0.336 0,-0.22398 0,-0.47998 0,-0.768 0.032,-0.31998 0.048,-0.63998 0.048,-0.96 0.032,-0.31998 0.064,-0.59198 0.096,-0.816 0,-0.064 0.032,-0.33598 0.096,-0.816 0.096,-0.47997 0.176,-0.84797 0.24,-1.104 m 19.824,4.32 c 0.15998,0.064 0.22397,0.14402 0.192,0.24 -0.032,0.096 -0.12802,0.17602 -0.288,0.24 -0.16002,0.064 -0.22402,-0.016 -0.192,-0.24 0.032,-0.22398 0.12798,-0.30398 0.288,-0.24 m 1.824,-4.32 c 0.12797,0.12803 0.15997,0.36803 0.096,0.72 -0.064,0.35203 -0.19203,0.59203 -0.384,0.72 -0.064,0.064 -0.11203,0.016 -0.144,-0.144 -3e-5,-0.15997 0.016,-0.35197 0.048,-0.576 0.032,-0.22397 0.08,-0.41597 0.144,-0.576 0.096,-0.15997 0.17597,-0.20797 0.24,-0.144 m -16.992,-1.44 c -0.064,0.16003 -0.16001,0.24003 -0.288,0.24 -0.12801,3e-5 -0.19201,-0.08 -0.192,-0.24 -1e-5,-0.15997 0.096,-0.23997 0.288,-0.24 0.19199,3e-5 0.25599,0.08 0.192,0.24 m 19.68,-12.48 0.576,0 c 0.15997,4e-5 0.28797,0.19204 0.384,0.576 0.12797,0.38404 0.20797,0.83204 0.24,1.344 0.064,0.48004 0.096,0.96004 0.096,1.44 -3e-5,0.48004 -0.016,0.80004 -0.048,0.96 l -0.576,0 c -3e-5,4e-5 -0.032,-0.14396 -0.096,-0.432 -0.064,-0.28796 -0.12803,-0.63996 -0.192,-1.056 -0.064,-0.41596 -0.14403,-0.83196 -0.24,-1.248 -0.064,-0.44796 -0.11203,-0.81596 -0.144,-1.104 -3e-5,-0.064 -3e-5,-0.14396 0,-0.24 -3e-5,-0.096 -3e-5,-0.17596 0,-0.24 m -17.088,-0.48 0.48,0 -0.576,0.48 0.096,-0.48 m 10.176,-3.12 c -2e-5,-0.032 0.016,-0.08 0.048,-0.144 0.032,-0.064 0.048,-0.096 0.048,-0.096 0.032,-0.064 0.11198,-0.14396 0.24,-0.24 0.15998,-0.12796 0.27198,-0.20796 0.336,-0.24 l 0.24,0 c 0.41598,4e-5 0.86398,0.096 1.344,0.288 0.51197,0.19204 0.95997,0.46404 1.344,0.816 0.38397,0.32004 0.68797,0.70404 0.912,1.152 0.25597,0.41604 0.33597,0.86404 0.24,1.344 l -0.048,0.24 c -0.25603,-0.15996 -0.67203,-0.33596 -1.248,-0.528 -0.54403,-0.19196 -1.08802,-0.39996 -1.632,-0.624 -0.54402,-0.25596 -1.00802,-0.54396 -1.392,-0.864 -0.38402,-0.31996 -0.52802,-0.68796 -0.432,-1.104 m -5.184,-0.24 c -2e-5,0.032 -2e-5,0.08 0,0.144 -2e-5,0.032 -2e-5,0.064 0,0.096 -0.064,0.25604 -0.22402,0.52804 -0.48,0.816 -0.25602,0.25604 -0.56002,0.49604 -0.912,0.72 -0.35202,0.19204 -0.70402,0.35204 -1.056,0.48 -0.35201,0.12804 -0.65601,0.19204 -0.912,0.192 -0.064,4e-5 -0.16001,4e-5 -0.288,0 -0.096,-0.032 -0.16001,-0.048 -0.192,-0.048 0.54399,-0.54396 1.13599,-1.00796 1.776,-1.392 0.67198,-0.41596 1.35998,-0.75196 2.064,-1.008 m 2.736,-0.528 c 0.032,4e-5 0.064,0.016 0.096,0.048 0.064,4e-5 0.11198,4e-5 0.144,0 l -1.152,0.96 c -2e-5,-0.032 -2e-5,-0.064 0,-0.096 -2e-5,-0.064 -2e-5,-0.11196 0,-0.144 -2e-5,-0.032 0.016,-0.08 0.048,-0.144 0.032,-0.064 0.048,-0.096 0.048,-0.096 0.032,-0.064 0.11198,-0.14396 0.24,-0.24 0.15998,-0.12796 0.27198,-0.20796 0.336,-0.24 -2e-5,4e-5 0.032,4e-5 0.096,0 0.064,-0.032 0.11198,-0.048 0.144,-0.048 m 9.168,-1.392 c 0.25597,5e-5 0.35197,0.16005 0.288,0.48 -0.064,0.32005 -0.22403,0.48005 -0.48,0.48 -0.25603,5e-5 -0.35203,-0.15995 -0.288,-0.48 0.064,-0.31995 0.22397,-0.47995 0.48,-0.48 m -0.48,0 c -0.096,0.16005 -0.19203,0.24005 -0.288,0.24 -0.096,5e-5 -0.16003,-0.0799 -0.192,-0.24 -0.032,-0.15995 0.064,-0.23995 0.288,-0.24 0.22397,5e-5 0.28797,0.0801 0.192,0.24"
         style="font-size:48px;font-style:italic;font-variant:normal;font-stretch:normal;font-family:Incubus;-inkscape-font-specification:Incubus Italic"
         id="path3076" />
      <path
         d="m 216.24582,630.84565 c 0.96,-0.25599 1.82399,-0.25599 2.592,0 0.76799,0.22401 1.50399,0.52801 2.208,0.912 0.70399,0.38401 1.40799,0.76801 2.112,1.152 0.73599,0.35201 1.55199,0.52801 2.448,0.528 1.08799,1e-5 1.99998,-0.15999 2.736,-0.48 0.73598,-0.31999 1.42398,-0.71999 2.064,-1.2 0.63998,-0.51199 1.26398,-1.07199 1.872,-1.68 0.60798,-0.60799 1.32798,-1.19999 2.16,-1.776 l -0.24,1.152 c -0.064,0.35201 -0.096,0.73601 -0.096,1.152 -2e-5,0.38401 0.032,0.75201 0.096,1.104 0.096,0.35201 0.25598,0.64001 0.48,0.864 0.22398,0.22401 0.51198,0.33601 0.864,0.336 0.57598,10e-6 0.91198,-0.17599 1.008,-0.528 0.12798,-0.35199 0.23998,-0.78399 0.336,-1.296 l 0.384,-1.776 c 0.12797,-0.63999 0.30397,-1.63199 0.528,-2.976 0.22397,-1.34398 0.47997,-2.84798 0.768,-4.512 0.31997,-1.69598 0.63997,-3.47198 0.96,-5.328 0.35197,-1.88797 0.67197,-3.66397 0.96,-5.328 0.31997,-1.69597 0.59197,-3.21597 0.816,-4.56 0.25597,-1.34396 0.44797,-2.33596 0.576,-2.976 -3e-5,-0.28796 -3e-5,-0.70396 0,-1.248 -3e-5,-0.57596 -0.048,-1.15196 -0.144,-1.728 -0.096,-0.57596 -0.28803,-1.07196 -0.576,-1.488 -0.25603,-0.41596 -0.65603,-0.62396 -1.2,-0.624 -0.25603,4e-5 -0.48003,0.032 -0.672,0.096 -0.19203,0.032 -0.36803,0.17604 -0.528,0.432 -0.16003,1.24804 -0.43203,2.67204 -0.816,4.272 -0.38403,1.60004 -0.89602,3.29603 -1.536,5.088 -0.60802,1.76003 -1.32802,3.55203 -2.16,5.376 -0.80002,1.82403 -1.71202,3.56802 -2.736,5.232 -0.99202,1.63202 -2.06402,3.13602 -3.216,4.512 -1.15201,1.34402 -2.36801,2.43201 -3.648,3.264 -1.24801,-0.41599 -2.20801,-1.15198 -2.88,-2.208 -0.67201,-1.05598 -1.16801,-2.23998 -1.488,-3.552 -0.28801,-1.31198 -0.44801,-2.65598 -0.48,-4.032 -0.032,-1.40797 -0.032,-2.68797 0,-3.84 -1e-5,-0.19197 0.016,-0.59197 0.048,-1.2 0.064,-0.63997 0.12799,-1.35997 0.192,-2.16 0.064,-0.83197 0.12799,-1.71197 0.192,-2.64 0.096,-0.95997 0.17599,-1.85596 0.24,-2.688 0.064,-0.83196 0.11199,-1.55196 0.144,-2.16 0.064,-0.60796 0.096,-1.02396 0.096,-1.248 0.032,-0.22396 0.032,-0.49596 0,-0.816 -0.032,-0.35196 -0.08,-0.68796 -0.144,-1.008 -0.032,-0.31996 -0.08,-0.59196 -0.144,-0.816 -0.032,-0.25596 -0.064,-0.38396 -0.096,-0.384 l -0.528,0 c -0.25601,0.38404 -0.64001,0.92804 -1.152,1.632 -0.48001,0.67204 -0.99201,1.39204 -1.536,2.16 -0.512,0.73604 -0.96,1.45604 -1.344,2.16 -0.352,0.70404 -0.528,1.24804 -0.528,1.632 0,0.16003 0.032,0.46403 0.096,0.912 0.096,0.44803 0.176,0.92803 0.24,1.44 0.096,0.48003 0.192,0.92803 0.288,1.344 0.096,0.41603 0.176,0.68803 0.24,0.816 l -3.216,16.128 c -0.032,0.22401 -0.032,0.49601 0,0.816 0.032,0.28801 0.096,0.59201 0.192,0.912 0.096,0.28801 0.224,0.56001 0.384,0.816 0.16,0.22401 0.368,0.38401 0.624,0.48 l 0.144,-0.72 c 0.096,-0.60799 0.16,-1.11999 0.192,-1.536 0.032,-0.44799 0,-1.03999 -0.096,-1.776 0.096,-0.064 0.208,-0.14398 0.336,-0.24 0.128,-0.12798 0.224,-0.20798 0.288,-0.24 0,2e-5 0.032,2e-5 0.096,0 0.096,-0.032 0.16,-0.048 0.192,-0.048 0.064,2e-5 0.112,0.016 0.144,0.048 0.032,2e-5 0.048,2e-5 0.048,0 0.064,0.032 0.128,0.19202 0.192,0.48 0.096,0.25602 0.144,0.43202 0.144,0.528 0.032,0.19201 0.064,0.52801 0.096,1.008 0.064,0.48001 0.112,0.99201 0.144,1.536 0.032,0.51201 0.064,1.00801 0.096,1.488 0.064,0.48001 0.112,0.81601 0.144,1.008 m 7.056,0 0.528,0 0.48,0 c 0.15999,0.032 0.41599,0.11201 0.768,0.24 0.38399,0.096 0.60799,0.17601 0.672,0.24 -0.064,10e-6 -0.19201,0.016 -0.384,0.048 -0.19201,0.032 -0.32001,0.048 -0.384,0.048 -0.38401,10e-6 -0.70401,-0.016 -0.96,-0.048 -0.22401,-0.064 -0.46401,-0.23999 -0.72,-0.528 m 1.344,-1.536 c 0.51199,-0.63999 1.21599,-1.15199 2.112,-1.536 0.89598,-0.38399 1.71198,-0.57599 2.448,-0.576 -0.35202,1.79201 -1.40802,2.68801 -3.168,2.688 -0.35201,10e-6 -0.60801,-0.032 -0.768,-0.096 -0.16001,-0.064 -0.36801,-0.22399 -0.624,-0.48 m 11.28,-13.584 c 0.25598,2e-5 0.35198,0.16002 0.288,0.48 -0.064,0.35202 -0.22402,0.52802 -0.48,0.528 -0.25602,2e-5 -0.35202,-0.17598 -0.288,-0.528 0.064,-0.31998 0.22398,-0.47998 0.48,-0.48"
         style="font-size:48px;font-style:italic;font-variant:normal;font-stretch:normal;font-family:Incubus;-inkscape-font-specification:Incubus Italic"
         id="path3078" />
      <path
         d="m 262.86207,630.65365 c -2e-5,0.16001 -2e-5,0.44801 0,0.864 -2e-5,0.41601 -2e-5,0.86401 0,1.344 -2e-5,0.44801 -2e-5,0.88001 0,1.296 0.032,0.38401 0.064,0.65601 0.096,0.816 -2e-5,0.096 0.032,0.27201 0.096,0.528 0.064,0.224 0.12798,0.368 0.192,0.432 -2e-5,0 0.016,0 0.048,0 0.064,0.032 0.12798,0.048 0.192,0.048 0.032,0 0.08,-0.016 0.144,-0.048 0.064,0 0.096,0 0.096,0 0.064,-0.032 0.15998,-0.096 0.288,-0.192 0.15998,-0.12799 0.25598,-0.22399 0.288,-0.288 0.12798,-0.57599 0.31998,-1.47199 0.576,-2.688 0.28797,-1.24799 0.59197,-2.63999 0.912,-4.176 0.35197,-1.53599 0.71997,-3.15198 1.104,-4.848 0.38397,-1.72798 0.73597,-3.35998 1.056,-4.896 0.35197,-1.56798 0.65597,-2.95998 0.912,-4.176 0.28797,-1.21597 0.49597,-2.12797 0.624,-2.736 l 0.24,-1.104 c 0.25597,-1.27997 0.41597,-2.52797 0.48,-3.744 0.064,-1.24797 0.22397,-2.51196 0.48,-3.792 0.032,-0.096 0.064,-0.27196 0.096,-0.528 0.064,-0.28796 0.12797,-0.59196 0.192,-0.912 0.096,-0.31996 0.17597,-0.60796 0.24,-0.864 0.032,-0.28796 0.064,-0.47996 0.096,-0.576 0.096,-0.032 0.28797,-0.096 0.576,-0.192 0.31997,-0.12796 0.63997,-0.23996 0.96,-0.336 0.35197,-0.096 0.67197,-0.17596 0.96,-0.24 0.28797,-0.096 0.47997,-0.15996 0.576,-0.192 0.38397,-0.064 0.99196,-0.17596 1.824,-0.336 0.83196,-0.15996 1.77596,-0.33596 2.832,-0.528 1.05596,-0.19196 2.15996,-0.38396 3.312,-0.576 1.15196,-0.22396 2.25596,-0.43196 3.312,-0.624 1.05595,-0.19196 1.99995,-0.35196 2.832,-0.48 0.83195,-0.15996 1.43995,-0.27196 1.824,-0.336 0.064,-0.032 0.15995,-0.096 0.288,-0.192 0.15995,-0.12796 0.25595,-0.22396 0.288,-0.288 -5e-5,4e-5 0.0159,-0.032 0.048,-0.096 0.0319,-0.064 0.048,-0.11196 0.048,-0.144 0.0639,-0.35195 -0.0321,-0.55995 -0.288,-0.624 -0.25605,-0.096 -0.51205,-0.14395 -0.768,-0.144 -0.86405,5e-5 -1.74405,0.0641 -2.64,0.192 -0.86405,0.12805 -1.76005,0.28805 -2.688,0.48 -0.89604,0.16004 -1.79204,0.32004 -2.688,0.48 -0.89604,0.16004 -1.77604,0.27204 -2.64,0.336 -0.096,4e-5 -0.36804,4e-5 -0.816,0 -0.41604,4e-5 -0.86404,4e-5 -1.344,0 -0.48004,4e-5 -0.94404,4e-5 -1.392,0 -0.41604,4e-5 -0.67204,4e-5 -0.768,0 -0.57603,0.064 -1.61603,0.19204 -3.12,0.384 -1.50403,0.16004 -3.08803,0.35204 -4.752,0.576 -1.66403,0.19204 -3.24802,0.38404 -4.752,0.576 -1.47202,0.16004 -2.51202,0.28804 -3.12,0.384 -0.35202,0.12804 -0.97602,0.27204 -1.872,0.432 -0.86402,0.16004 -1.87202,0.33604 -3.024,0.528 -1.15201,0.19204 -2.35201,0.41604 -3.6,0.672 -1.24801,0.22404 -2.40001,0.48004 -3.456,0.768 -1.05601,0.25604 -1.93601,0.52804 -2.64,0.816 -0.704,0.28804 -1.088,0.57604 -1.152,0.864 0,0.064 0.128,0.24004 0.384,0.528 0.256,0.25604 0.56,0.56004 0.912,0.912 0.35199,0.32004 0.70399,0.60804 1.056,0.864 0.35199,0.25604 0.59199,0.38404 0.72,0.384 1.59999,4e-5 3.19999,-0.19196 4.8,-0.576 1.63199,-0.41596 3.26399,-0.86396 4.896,-1.344 1.63198,-0.47996 3.24798,-0.91196 4.848,-1.296 1.63198,-0.41596 3.24798,-0.62396 4.848,-0.624 -0.80003,3.96804 -1.50402,7.88803 -2.112,11.76 -0.57602,3.84002 -1.15202,7.74402 -1.728,11.712 -0.064,0.25602 -0.19202,0.75202 -0.384,1.488 -0.19202,0.70401 -0.32002,1.40801 -0.384,2.112 -0.032,0.70401 0.032,1.29601 0.192,1.776 0.19198,0.48001 0.63998,0.60801 1.344,0.384 m 0.288,-1.44 c 0.15998,0.032 0.22398,0.11201 0.192,0.24 -0.032,0.12801 -0.12802,0.20801 -0.288,0.24 -0.16002,0.032 -0.22402,-0.048 -0.192,-0.24 0.032,-0.19199 0.12798,-0.27199 0.288,-0.24 m 1.344,-6.72 c 0.15998,0.032 0.22398,0.11202 0.192,0.24 -0.032,0.12802 -0.12802,0.20802 -0.288,0.24 -0.16002,0.032 -0.22402,-0.048 -0.192,-0.24 0.032,-0.19198 0.12798,-0.27198 0.288,-0.24 m 0.576,-2.88 c 0.12797,0.12802 0.15997,0.36802 0.096,0.72 -0.064,0.35202 -0.19202,0.59202 -0.384,0.72 -0.064,0.064 -0.11202,0.016 -0.144,-0.144 -2e-5,-0.15998 0.016,-0.35198 0.048,-0.576 0.032,-0.22398 0.08,-0.41598 0.144,-0.576 0.096,-0.15998 0.17597,-0.20798 0.24,-0.144 m 0.768,-3.84 c 0.064,0.064 0.11197,0.22402 0.144,0.48 0.064,0.25602 0.11197,0.41602 0.144,0.48 l -0.048,0.24 -0.048,0.24 c -0.064,0.12802 -0.19203,0.38402 -0.384,0.768 -0.16003,0.35202 -0.28803,0.57602 -0.384,0.672 l 0.576,-2.88 m 2.304,-13.92 c -0.032,0.16004 -0.08,0.43204 -0.144,0.816 -0.096,0.38404 -0.17603,0.80004 -0.24,1.248 -0.064,0.41604 -0.14403,0.81604 -0.24,1.2 -0.064,0.38404 -0.11203,0.65603 -0.144,0.816 -0.064,0.25603 -0.12803,0.60803 -0.192,1.056 -0.096,0.44803 -0.20803,0.89603 -0.336,1.344 -0.096,0.41603 -0.17603,0.80003 -0.24,1.152 -0.064,0.32003 -0.096,0.49603 -0.096,0.528 -0.032,0.096 -0.11203,0.33603 -0.24,0.72 -0.096,0.38403 -0.24003,0.81603 -0.432,1.296 -0.16003,0.44803 -0.35203,0.86403 -0.576,1.248 -0.19203,0.35203 -0.35202,0.54403 -0.48,0.576 0.032,-0.15997 0.096,-0.44797 0.192,-0.864 0.064,-0.44797 0.14397,-0.91197 0.24,-1.392 0.096,-0.51197 0.17597,-0.97597 0.24,-1.392 0.096,-0.44797 0.15997,-0.75197 0.192,-0.912 0.22397,-1.15197 0.44797,-2.31997 0.672,-3.504 0.22397,-1.18396 0.63997,-2.33596 1.248,-3.456 0.032,-0.064 0.11197,-0.14396 0.24,-0.24 0.15997,-0.12796 0.27197,-0.20796 0.336,-0.24"
         style="font-size:48px;font-style:italic;font-variant:normal;font-stretch:normal;font-family:Incubus;-inkscape-font-specification:Incubus Italic"
         id="path3080" />
      <path
         d="m 288.08457,632.90965 c 0,0.12801 0.096,0.32001 0.288,0.576 0.224,0.25601 0.384,0.40001 0.48,0.432 0.032,10e-6 0.256,-0.064 0.672,-0.192 0.416,-0.12799 0.72,-0.22399 0.912,-0.288 0.128,-0.032 0.32,-0.096 0.576,-0.192 0.256,-0.12799 0.544,-0.25599 0.864,-0.384 0.31999,-0.12799 0.60799,-0.22399 0.864,-0.288 0.25599,-0.096 0.41599,-0.14399 0.48,-0.144 l 0.432,0 0.816,0 0.768,0 0.48,0 c 1.75999,-0.35199 3.47199,-0.94399 5.136,-1.776 1.66398,-0.86399 3.32798,-1.79199 4.992,-2.784 1.66398,-1.02399 3.31198,-2.03199 4.944,-3.024 1.66397,-0.99198 3.35997,-1.82398 5.088,-2.496 l 0.24,-1.2 c -1.37603,2e-5 -2.76803,0.19202 -4.176,0.576 -1.37602,0.35202 -2.75202,0.81602 -4.128,1.392 -1.34402,0.54402 -2.68802,1.15202 -4.032,1.824 -1.31202,0.67202 -2.62401,1.31201 -3.936,1.92 l -0.48,0 2.208,-11.088 c -10e-6,-0.032 0.08,-0.096 0.24,-0.192 0.15999,-0.12797 0.27198,-0.22397 0.336,-0.288 0.12798,-0.096 0.35198,-0.23997 0.672,-0.432 0.31998,-0.19197 0.65598,-0.38397 1.008,-0.576 0.38398,-0.22397 0.73598,-0.43197 1.056,-0.624 0.35198,-0.19197 0.57598,-0.31997 0.672,-0.384 0.12798,-0.032 0.35198,-0.14397 0.672,-0.336 0.35198,-0.19197 0.73598,-0.38397 1.152,-0.576 0.41598,-0.22397 0.81598,-0.43197 1.2,-0.624 0.41598,-0.22397 0.73598,-0.38397 0.96,-0.48 0.31998,-0.12797 0.71998,-0.25597 1.2,-0.384 0.47998,-0.12797 0.94398,-0.27197 1.392,-0.432 0.47997,-0.15997 0.89597,-0.35197 1.248,-0.576 0.38397,-0.25597 0.60797,-0.55997 0.672,-0.912 0.096,-0.35197 -3e-5,-0.57597 -0.288,-0.672 -0.25603,-0.096 -0.51203,-0.14397 -0.768,-0.144 -0.48003,3e-5 -0.88003,0.048 -1.2,0.144 -0.28802,0.064 -0.72002,0.20803 -1.296,0.432 l -6.624,3.024 -1.488,0 2.112,-10.56 0.576,-0.528 11.712,-0.48 0.48,0 c 0.15997,-0.064 0.44797,-0.14396 0.864,-0.24 0.41597,-0.12796 0.67197,-0.22396 0.768,-0.288 -0.064,-0.064 -0.28803,-0.14396 -0.672,-0.24 -0.35203,-0.12796 -0.60803,-0.20796 -0.768,-0.24 -0.28803,-0.032 -0.76803,-0.096 -1.44,-0.192 -0.67203,-0.096 -1.40803,-0.17596 -2.208,-0.24 -0.76803,-0.096 -1.52003,-0.17596 -2.256,-0.24 -0.70402,-0.064 -1.20002,-0.096 -1.488,-0.096 l 8.544,0 c -0.032,-0.25596 -0.17603,-0.57596 -0.432,-0.96 -0.25603,-0.38396 -0.49603,-0.57596 -0.72,-0.576 l -11.088,0 c -0.064,-0.47996 -0.19202,-0.81596 -0.384,-1.008 -0.19202,-0.19195 -0.49602,-0.28795 -0.912,-0.288 -0.28802,5e-5 -0.57602,0.0801 -0.864,0.24 -0.28802,0.12804 -0.57602,0.28804 -0.864,0.48 -0.28802,0.19204 -0.60802,0.38404 -0.96,0.576 -0.32002,0.16004 -0.68801,0.25604 -1.104,0.288 -0.25601,0.032 -0.70401,0.08 -1.344,0.144 -0.60801,0.064 -1.28001,0.12804 -2.016,0.192 -0.70401,0.032 -1.37601,0.064 -2.016,0.096 -0.60801,0.032 -1.04001,0.048 -1.296,0.048 -0.22401,0.096 -0.52801,0.19204 -0.912,0.288 -0.35201,0.096 -0.72001,0.20804 -1.104,0.336 -0.35201,0.12804 -0.672,0.28804 -0.96,0.48 -0.256,0.16004 -0.416,0.38404 -0.48,0.672 0,0.032 0,0.08 0,0.144 0,0.032 0,0.064 0,0.096 0.864,0.19204 1.72799,0.33604 2.592,0.432 0.86399,0.096 1.72799,0.19204 2.592,0.288 0.86399,0.064 1.71199,0.16004 2.544,0.288 0.86399,0.12804 1.72799,0.30404 2.592,0.528 l -0.192,1.008 c -0.096,0.35204 -0.24001,0.88004 -0.432,1.584 -0.16001,0.70404 -0.38401,1.50404 -0.672,2.4 -0.25601,0.89603 -0.52801,1.82403 -0.816,2.784 -0.28801,0.92803 -0.59201,1.80803 -0.912,2.64 -0.32001,0.80003 -0.64001,1.50403 -0.96,2.112 -0.28801,0.57603 -0.54401,0.92803 -0.768,1.056 -0.064,0.032 -0.24001,0.11203 -0.528,0.24 -0.28801,0.096 -0.48001,0.19203 -0.576,0.288 -10e-6,3e-5 -0.016,0.032 -0.048,0.096 -0.032,0.032 -0.048,0.08 -0.048,0.144 -10e-6,0.032 -10e-6,0.08 0,0.144 -10e-6,0.064 -10e-6,0.096 0,0.096 0.032,0.032 0.096,0.16002 0.192,0.384 0.096,0.19202 0.20799,0.40002 0.336,0.624 0.12799,0.22402 0.23999,0.44802 0.336,0.672 0.12799,0.19202 0.20799,0.30402 0.24,0.336 l -0.096,0.384 c -0.41601,2.01602 -0.91201,4.06402 -1.488,6.144 -0.54401,2.04801 -1.20001,4.08001 -1.968,6.096 -0.032,0.064 -0.12801,0.16001 -0.288,0.288 -0.12801,0.096 -0.22401,0.16001 -0.288,0.192 -0.19201,0.096 -0.496,0.24001 -0.912,0.432 -0.416,0.19201 -0.864,0.40001 -1.344,0.624 -0.48,0.19201 -0.928,0.38401 -1.344,0.576 -0.416,0.19201 -0.688,0.32001 -0.816,0.384 m 10.56,-15.12 c -0.12801,1.53602 -0.28801,2.99202 -0.48,4.368 -0.16001,1.34402 -0.40001,2.78402 -0.72,4.32 -0.032,0.19201 -0.096,0.46401 -0.192,0.816 -0.064,0.35201 -0.096,0.54401 -0.096,0.576 l -1.248,1.008 0.384,-1.776 c 0.15999,-0.83199 0.31999,-1.58398 0.48,-2.256 0.15999,-0.70398 0.31999,-1.40798 0.48,-2.112 0.15999,-0.70398 0.35199,-1.43998 0.576,-2.208 0.22399,-0.79998 0.49599,-1.71198 0.816,-2.736 m 4.128,9.6 c -0.096,0.16001 -0.19202,0.24001 -0.288,0.24 -0.096,10e-6 -0.16002,-0.08 -0.192,-0.24 -0.032,-0.19199 0.064,-0.28799 0.288,-0.288 0.25598,1e-5 0.31998,0.096 0.192,0.288 m 4.224,-28.752 2.016,0 -0.096,0.528 -1.92,-0.528"
         style="font-size:48px;font-style:italic;font-variant:normal;font-stretch:normal;font-family:Incubus;-inkscape-font-specification:Incubus Italic"
         id="path3082" />
    </g>
    <g
       transform="matrix(0.95109648,-0.29177223,0.31593294,0.95449785,0,0)"
       style="font-size:15.24284363px;font-style:normal;font-weight:normal;line-height:125%;letter-spacing:0px;word-spacing:0px;fill:#000000;fill-opacity:1;stroke:none;font-family:Sans"
       id="text3001">
      <path
         d="m 134.32758,639.8673 c 3.19994,2.1334 5.39994,5.06673 6.6,8.8 1.33327,3.60006 1.59994,7.40006 0.8,11.4 -0.80006,4.26671 -2.33339,8.46671 -4.6,12.6 -2.26672,4.00004 -4.73339,7.8667 -7.4,11.6 -2.66672,3.60002 -5.73338,7.26669 -9.2,11 -3.46671,3.73335 -6.8667,7.13334 -10.2,10.2 -4.00003,3.6 -8.40002,7 -13.199995,10.2 -4.666686,3.19999 -9.666681,4.99999 -15,5.4 -0.266675,0.13332 -0.400008,-1e-5 -0.4,-0.4 -8e-6,-0.26668 0.133325,-0.40001 0.4,-0.4 2.266656,-0.53334 4.466654,-1.20001 6.6,-2 2.133316,-0.66667 4.266647,-1.6 6.4,-2.8 0.933311,-0.53334 1.73331,-1 2.4,-1.4 0.666642,-0.4 1.266641,-0.8 1.8,-1.2 0.533307,-0.4 1.066635,-0.8 1.599995,-1.2 0.53331,-0.53333 1.26664,-1.2 2.2,-2 3.06664,-2.66666 5.9333,-5.39999 8.6,-8.2 2.66663,-2.79999 5.26663,-5.73332 7.8,-8.8 3.06662,-3.59998 5.93329,-7.39997 8.6,-11.4 2.66661,-3.99997 4.73328,-8.19996 6.2,-12.6 0.66661,-1.99995 1.13328,-3.99995 1.4,-6 0.39994,-2.13328 0.46661,-4.19995 0.2,-6.2 -0.26672,-1.99994 -0.86672,-3.86661 -1.8,-5.6 -0.80005,-1.8666 -1.93339,-3.53327 -3.4,-5 -2.66672,-2.2666 -5.60005,-3.93326 -8.8,-5 -3.06671,-1.19993 -6.40004,-1.59993 -10,-1.2 -3.60003,0.40007 -6.80003,1.26674 -9.6,2.6 -2.800021,1.3334 -5.133352,3.80007 -6.999995,7.4 -0.133355,0.26673 -0.400021,0.3334 -0.8,0.2 -0.266687,-0.13327 -0.266687,-0.33327 0,-0.6 l 0,-0.2 c 1.733311,-3.4666 4.399975,-6.2666 7.999995,-8.4 3.73331,-2.26659 7.3333,-3.73326 10.8,-4.4 3.59996,-0.66659 7.26662,-0.66659 11,0 3.73328,0.53341 7.06661,1.73341 10,3.6 m 85,140 c 1.06652,-0.5334 1.66652,-0.40007 1.8,0.4 0.13319,0.93326 -0.40014,1.53326 -1.6,1.8 l -7.2,1.2 c -4.6668,0.53326 -9.66679,0.59993 -15,0.2 -5.33345,-0.26674 -10.13344,-1.1334 -14.4,-2.6 -3.73343,-1.3334 -7.33343,-3.00007 -10.8,-5 -3.33342,-2.00006 -6.53342,-4.20006 -9.6,-6.6 -3.33341,-2.66672 -6.53341,-5.46672 -9.6,-8.4 -2.9334,-2.93338 -5.86674,-5.93338 -8.8,-9 -2.9334,-2.93337 -5.93339,-5.8667 -9,-8.8 -3.06672,-2.93336 -6.26672,-5.66669 -9.6,-8.2 -3.86671,-2.93335 -8.06671,-5.46668 -12.6,-7.6 -4.40003,-2.13335 -9.00003,-3.80001 -13.799995,-5 -4.666688,-1.06668 -9.066683,-1.60001 -13.2,-1.6 -4.133342,0.13332 -8.66667,1.13332 -13.6,3 -0.266665,-10e-6 -0.399998,-0.13334 -0.4,-0.4 -0.133332,-0.13334 -0.06667,-0.20001 0.2,-0.2 2.133333,-1.06668 4.266664,-1.80001 6.4,-2.2 5.066657,-1.06667 9.999985,-1.40001 14.8,-1 4.933309,0.53332 9.666635,1.53332 14.199995,3 4.66663,1.46665 8.99996,3.33332 13,5.6 4.13329,2.39998 7.99995,5.13331 11.6,8.2 3.33328,2.79997 6.53327,5.66664 9.6,8.6 3.0666,3.06663 6.13326,6.13329 9.2,9.2 2.79992,2.79995 5.66659,5.59995 8.6,8.4 2.93325,2.79995 6.06658,5.39994 9.4,7.8 3.19991,2.26661 6.5999,4.2666 10.2,6 3.5999,1.8666 7.39989,3.33327 11.4,4.4 4.66655,1.0666 9.46655,1.6666 14.4,1.8 4.9332,0.13326 9.7332,-0.86674 14.4,-3"
         style="font-size:100px;font-variant:normal;font-stretch:normal;font-family:Before the Rain;-inkscape-font-specification:Before the Rain"
         id="path3071" />
    </g>
    <g
       style="font-size:14px;font-style:normal;font-weight:normal;line-height:125%;letter-spacing:0px;word-spacing:0px;fill:#000000;fill-opacity:1;stroke:none;font-family:Sans"
       id="text3005">
      <path
         d="m 354.936,636.80442 c -10e-6,0.64001 -10e-6,1.66401 0,3.072 0.032,1.40801 0.08,2.99201 0.144,4.752 0.096,1.76 0.19199,3.584 0.288,5.472 0.12799,1.856 0.28799,3.552 0.48,5.088 0.22399,1.56799 0.47999,2.84799 0.768,3.84 0.28799,0.99199 0.63999,1.48799 1.056,1.488 0.064,-1e-5 0.15999,-0.064 0.288,-0.192 0.12799,-0.096 0.19199,-0.17601 0.192,-0.24 -0.064,-2.40001 -0.08,-4.75201 -0.048,-7.056 0.064,-2.336 0.22399,-4.704 0.48,-7.104 0.096,0.256 0.17599,0.608 0.24,1.056 0.064,0.416 0.15999,0.832 0.288,1.248 0.12799,0.384 0.28799,0.72 0.48,1.008 0.19199,0.288 0.47998,0.432 0.864,0.432 -2e-5,-1.728 -0.08,-3.408 -0.24,-5.04 -0.16002,-1.66399 -0.24001,-3.37599 -0.24,-5.136 -10e-6,-0.38399 0.096,-0.73599 0.288,-1.056 0.19198,-0.35199 0.43198,-0.63999 0.72,-0.864 0.31998,-0.25599 0.65598,-0.44799 1.008,-0.576 0.38398,-0.15999 0.75198,-0.23999 1.104,-0.24 0.99198,10e-6 2.04798,0.19201 3.168,0.576 1.11998,0.38401 2.23998,0.83201 3.36,1.344 1.11997,0.51201 2.20797,1.02401 3.264,1.536 1.08797,0.51201 2.09597,0.89601 3.024,1.152 0.19197,0.064 0.60797,0.19201 1.248,0.384 0.67197,0.16001 1.39197,0.35201 2.16,0.576 0.76796,0.19201 1.48796,0.38401 2.16,0.576 0.67196,0.16001 1.10396,0.25601 1.296,0.288 1.02396,0.35201 2.27196,0.84801 3.744,1.488 1.50396,0.608 3.05596,1.216 4.656,1.824 1.59995,0.608 3.15195,1.152 4.656,1.632 1.53595,0.448 2.84795,0.672 3.936,0.672 -5e-5,-0.192 -0.12805,-0.48 -0.384,-0.864 -0.25605,-0.384 -0.56005,-0.736 -0.912,-1.056 -0.35205,-0.352 -0.72005,-0.624 -1.104,-0.816 -0.38405,-0.224 -0.68805,-0.272 -0.912,-0.144 -1.44005,-1.28 -2.97605,-2.36799 -4.608,-3.264 -1.60005,-0.92799 -3.26404,-1.79199 -4.992,-2.592 -1.69604,-0.79999 -3.40804,-1.58399 -5.136,-2.352 -1.69604,-0.79999 -3.32803,-1.71199 -4.896,-2.736 -0.41603,-0.25599 -0.96003,-0.52799 -1.632,-0.816 -0.67203,-0.31998 -1.32803,-0.63998 -1.968,-0.96 -0.64003,-0.35198 -1.20003,-0.68798 -1.68,-1.008 -0.44803,-0.35198 -0.67203,-0.70398 -0.672,-1.056 -3e-5,-0.032 -3e-5,-0.064 0,-0.096 0.032,-0.064 0.048,-0.11198 0.048,-0.144 0.096,-0.096 0.27197,-0.23998 0.528,-0.432 0.25597,-0.22398 0.52797,-0.44798 0.816,-0.672 0.28797,-0.25598 0.55997,-0.49598 0.816,-0.72 0.28797,-0.22398 0.47997,-0.38398 0.576,-0.48 0.032,-0.032 0.11197,-0.096 0.24,-0.192 0.15997,-0.12798 0.30397,-0.23998 0.432,-0.336 0.15997,-0.096 0.30397,-0.17598 0.432,-0.24 0.12797,-0.096 0.20797,-0.14398 0.24,-0.144 0.064,-0.032 0.36797,-0.08 0.912,-0.144 0.57597,-0.064 1.26397,-0.15998 2.064,-0.288 0.83197,-0.12798 1.71197,-0.28798 2.64,-0.48 0.92796,-0.22398 1.77596,-0.46398 2.544,-0.72 0.79996,-0.28798 1.45596,-0.60798 1.968,-0.96 0.54396,-0.35198 0.81596,-0.75198 0.816,-1.2 -4e-5,-0.44797 -0.096,-0.89597 -0.288,-1.344 -0.19204,-0.47997 -0.40004,-0.89597 -0.624,-1.248 l 3.648,-2.256 c 0.032,3e-5 0.048,-0.048 0.048,-0.144 0.032,-0.12797 0.048,-0.22397 0.048,-0.288 -4e-5,-0.60797 -0.11204,-1.02397 -0.336,-1.248 -0.22404,-0.22397 -0.49604,-0.35197 -0.816,-0.384 -0.32004,-0.032 -0.67204,-0.016 -1.056,0.048 -0.38404,0.064 -0.72004,0.096 -1.008,0.096 -4e-5,-0.47997 0.064,-0.92797 0.192,-1.344 0.15996,-0.41597 0.23996,-0.86397 0.24,-1.344 -4e-5,-0.70396 -0.35204,-1.27996 -1.056,-1.728 -0.70404,-0.47996 -1.52004,-0.84796 -2.448,-1.104 -0.92804,-0.28796 -1.85604,-0.47996 -2.784,-0.576 -0.89603,-0.12796 -1.55203,-0.19196 -1.968,-0.192 l -0.672,0 c -0.38403,4e-5 -0.83203,4e-5 -1.344,0 -0.48003,-0.032 -0.99203,-0.048 -1.536,-0.048 l -1.248,0 c -2.08003,4e-5 -4.14402,0.12804 -6.192,0.384 -2.04802,0.25604 -4.09602,0.59204 -6.144,1.008 -2.01601,0.38404 -4.03201,0.83204 -6.048,1.344 -1.98401,0.48004 -3.98401,0.94403 -6,1.392 l 0,0.48 c 0,0.54403 0.016,0.92803 0.048,1.152 0.064,0.19203 0.16,0.30403 0.288,0.336 0.16,0.032 0.352,0.016 0.576,-0.048 0.224,-0.064 0.528,-0.096 0.912,-0.096 l 0,0.912 -4.992,5.04 c 0,3e-5 -0.016,0.032 -0.048,0.096 0,0.064 0,0.11203 0,0.144 0,0.032 0,0.08 0,0.144 0.032,0.032 0.048,0.048 0.048,0.048 0.064,0.096 0.208,0.25603 0.432,0.48 0.224,0.22403 0.384,0.36803 0.48,0.432 l 0.144,0 0.288,0 c 0.16,-0.032 0.464,-0.096 0.912,-0.192 0.448,-0.096 0.752,-0.17597 0.912,-0.24 -0.416,0.032 -0.688,0.016 -0.816,-0.048 -0.096,-0.096 -0.144,-0.20797 -0.144,-0.336 0.032,-0.12797 0.096,-0.27197 0.192,-0.432 0.096,-0.15997 0.144,-0.31997 0.144,-0.48 0.224,3e-5 0.72,0.048 1.488,0.144 0.76799,0.064 1.55199,0.17603 2.352,0.336 0.83199,0.12803 1.56799,0.30403 2.208,0.528 0.63999,0.22403 0.95999,0.46403 0.96,0.72 l 0,0.432 c -0.96001,2e-5 -1.88801,-0.15998 -2.784,-0.48 -0.89601,-0.35197 -1.82401,-0.52797 -2.784,-0.528 0,0.22403 0.032,0.44803 0.096,0.672 0.064,0.19202 0.224,0.32002 0.48,0.384 l 4.992,1.824 c -10e-6,2e-5 -10e-6,0.032 0,0.096 0.032,0.032 0.048,0.064 0.048,0.096 -10e-6,0.25602 -0.032,0.44802 -0.096,0.576 -0.064,0.12802 -0.14401,0.27202 -0.24,0.432 -0.096,0.16002 -0.17601,0.35202 -0.24,0.576 -0.064,0.22402 -0.096,0.54402 -0.096,0.96 l 0.912,0 c -10e-6,0.22402 -10e-6,0.59202 0,1.104 0.032,0.51202 0.064,1.05602 0.096,1.632 0.032,0.57602 0.048,1.12002 0.048,1.632 0.032,0.51202 0.048,0.88001 0.048,1.104 -10e-6,0.064 -0.032,0.20801 -0.096,0.432 -0.032,0.22401 -0.08,0.46401 -0.144,0.72 -0.064,0.25601 -0.12801,0.49601 -0.192,0.72 -0.032,0.19201 -0.048,0.32001 -0.048,0.384 m 20.976,1.392 c 0.064,10e-6 0.17597,10e-6 0.336,0 0.15997,-0.032 0.27197,-0.048 0.336,-0.048 0.67197,10e-6 1.24797,0.12801 1.728,0.384 0.47997,0.22401 1.05597,0.56001 1.728,1.008 -0.064,10e-6 -0.22403,0.016 -0.48,0.048 -0.22403,10e-6 -0.36803,10e-6 -0.432,0 -0.64003,10e-6 -1.18403,-0.15999 -1.632,-0.48 -0.41603,-0.35199 -0.94403,-0.65599 -1.584,-0.912 m -7.728,-2.304 0.432,0 c 0.38398,10e-6 0.81598,0.064 1.296,0.192 0.47997,0.096 0.81597,0.33601 1.008,0.72 l -0.24,0 c -0.38403,10e-6 -0.81602,-0.096 -1.296,-0.288 -0.44802,-0.19199 -0.84802,-0.39999 -1.2,-0.624 m 5.472,-1.344 c -3e-5,1e-5 0.016,1e-5 0.048,0 0.064,-0.032 0.11197,-0.048 0.144,-0.048 0.032,1e-5 0.08,0.016 0.144,0.048 0.064,1e-5 0.096,1e-5 0.096,0 0.064,0.032 0.14397,0.096 0.24,0.192 0.12797,0.096 0.20797,0.17601 0.24,0.24 -0.032,10e-6 -0.08,0.016 -0.144,0.048 -0.032,10e-6 -0.064,10e-6 -0.096,0 -0.032,10e-6 -0.08,10e-6 -0.144,0 -0.064,-0.032 -0.096,-0.048 -0.096,-0.048 -0.064,-0.032 -0.16003,-0.096 -0.288,-0.192 -0.096,-0.096 -0.14403,-0.17599 -0.144,-0.24 m -4.128,-0.912 c 0.25598,2e-5 0.38398,0.14402 0.384,0.432 -2e-5,0.32001 -0.12802,0.48001 -0.384,0.48 -0.25602,1e-5 -0.38402,-0.15999 -0.384,-0.48 -2e-5,-0.28798 0.12798,-0.43198 0.384,-0.432 m 3.648,0 c 0.25597,2e-5 0.38397,0.14402 0.384,0.432 -3e-5,0.32001 -0.12803,0.48001 -0.384,0.48 -0.25603,1e-5 -0.38403,-0.15999 -0.384,-0.48 -3e-5,-0.28798 0.12797,-0.43198 0.384,-0.432 m -4.08,0 c -0.064,0.16002 -0.14402,0.24002 -0.24,0.24 -0.096,2e-5 -0.17602,-0.08 -0.24,-0.24 -0.064,-0.15998 0.016,-0.23998 0.24,-0.24 0.22398,2e-5 0.30398,0.08 0.24,0.24 m 2.256,-0.48 c -0.064,0.16002 -0.14403,0.24002 -0.24,0.24 -0.096,2e-5 -0.17603,-0.064 -0.24,-0.192 -0.032,-0.15998 0.048,-0.23998 0.24,-0.24 0.22397,2e-5 0.30397,0.064 0.24,0.192 m -1.344,-0.912 c 0.22397,2e-5 0.33597,0.16002 0.336,0.48 -3e-5,0.28802 -0.11203,0.43202 -0.336,0.432 -0.25602,2e-5 -0.38402,-0.14398 -0.384,-0.432 -2e-5,-0.31998 0.12798,-0.47998 0.384,-0.48 m -3.456,-0.96 c 0.064,2e-5 0.17598,0.016 0.336,0.048 0.19198,2e-5 0.31998,2e-5 0.384,0 -0.064,0.28802 -0.22402,0.44802 -0.48,0.48 -0.25602,0.032 -0.48002,0.048 -0.672,0.048 -0.064,2e-5 -0.17602,2e-5 -0.336,0 -0.16002,-0.032 -0.27202,-0.048 -0.336,-0.048 0.064,-0.28798 0.20798,-0.44798 0.432,-0.48 0.25598,-0.032 0.47998,-0.048 0.672,-0.048 m 3.888,-2.256 c 0.064,2e-5 0.14397,0.016 0.24,0.048 0.12797,2e-5 0.20797,2e-5 0.24,0 -0.096,0.16002 -0.25603,0.32002 -0.48,0.48 -0.22403,0.12802 -0.46402,0.25602 -0.72,0.384 -0.22402,0.12802 -0.44802,0.24002 -0.672,0.336 -0.22402,0.064 -0.36802,0.11202 -0.432,0.144 -2e-5,-0.032 -0.016,-0.064 -0.048,-0.096 -2e-5,-0.032 -2e-5,-0.064 0,-0.096 -2e-5,-0.44798 0.22398,-0.75198 0.672,-0.912 0.44798,-0.19198 0.84797,-0.28798 1.2,-0.288 m -11.952,-1.44 c 0.25599,2e-5 0.55999,0.064 0.912,0.192 0.38399,0.096 0.57599,0.30402 0.576,0.624 l 0,0.192 c -0.064,0.064 -0.22401,0.16002 -0.48,0.288 -0.22401,0.096 -0.36801,0.16002 -0.432,0.192 -0.16001,-0.25598 -0.30401,-0.49598 -0.432,-0.72 -0.096,-0.22398 -0.14401,-0.47998 -0.144,-0.768 m 1.488,-0.816 c 0.79998,-0.22398 1.45598,-0.35198 1.968,-0.384 0.51198,-0.064 1.13598,-0.096 1.872,-0.096 0.12798,2e-5 0.39998,0.016 0.816,0.048 0.41598,2e-5 0.68798,2e-5 0.816,0 -0.19202,0.44802 -0.54402,0.72002 -1.056,0.816 -0.51202,0.096 -1.04002,0.14402 -1.584,0.144 l -0.864,0 c -0.35202,2e-5 -0.70402,2e-5 -1.056,0 -0.32002,-0.032 -0.62402,-0.20798 -0.912,-0.528 m -1.824,-1.344 0,-5.952 c 0.60799,3e-5 1.66399,-0.016 3.168,-0.048 1.50398,-0.064 3.10398,-0.11197 4.8,-0.144 1.69598,-0.064 3.29598,-0.11197 4.8,-0.144 1.50397,-0.064 2.55997,-0.096 3.168,-0.096 l 1.056,0 c 0.19197,3e-5 0.47997,0.016 0.864,0.048 0.38397,0.032 0.76797,0.096 1.152,0.192 0.41597,0.064 0.76797,0.17603 1.056,0.336 0.31997,0.16003 0.47997,0.35203 0.48,0.576 -3e-5,0.032 -0.016,0.064 -0.048,0.096 -3e-5,0.032 -3e-5,0.064 0,0.096 -0.19203,0.12803 -0.56003,0.33603 -1.104,0.624 -0.51203,0.25603 -1.05603,0.52803 -1.632,0.816 -0.57603,0.28803 -1.12003,0.56003 -1.632,0.816 -0.51203,0.22403 -0.88003,0.38403 -1.104,0.48 -0.096,0.032 -0.33603,0.12803 -0.72,0.288 -0.38403,0.16003 -0.81603,0.35203 -1.296,0.576 -0.44803,0.19202 -0.91203,0.38402 -1.392,0.576 -0.48002,0.16002 -0.86402,0.28802 -1.152,0.384 -0.19202,0.064 -0.46402,0.16002 -0.816,0.288 -0.32002,0.12802 -0.49602,0.19202 -0.528,0.192 l -9.12,0 m 25.296,-3.264 c 0.25596,3e-5 0.51196,0.048 0.768,0.144 0.28796,0.064 0.43196,0.27203 0.432,0.624 -4e-5,0.41603 -0.28804,0.78403 -0.864,1.104 -0.57604,0.32002 -1.23204,0.59202 -1.968,0.816 -0.70404,0.19202 -1.39204,0.35202 -2.064,0.48 -0.67203,0.096 -1.12003,0.14402 -1.344,0.144 -0.064,2e-5 -0.17603,2e-5 -0.336,0 -0.16003,-0.032 -0.27203,-0.048 -0.336,-0.048 0.28797,-0.35198 0.65597,-0.71998 1.104,-1.104 0.44797,-0.38397 0.92797,-0.73597 1.44,-1.056 0.54396,-0.31997 1.08796,-0.57597 1.632,-0.768 0.57596,-0.22397 1.08796,-0.33597 1.536,-0.336 m -34.224,-1.056 0.72,-0.72 c 0.032,-0.032 0.22399,-0.08 0.576,-0.144 0.35199,-0.064 0.76799,-0.14397 1.248,-0.24 0.47999,-0.096 0.95999,-0.19197 1.44,-0.288 0.51199,-0.096 0.94399,-0.17597 1.296,-0.24 0.096,-0.032 0.35199,-0.048 0.768,-0.048 0.44799,3e-5 0.73599,3e-5 0.864,0 -1e-5,0.44803 -0.064,0.80003 -0.192,1.056 -0.12801,0.25603 -0.28801,0.49603 -0.48,0.72 -0.16001,0.19203 -0.33601,0.40003 -0.528,0.624 -0.16001,0.19203 -0.30401,0.48003 -0.432,0.864 l -5.28,-1.584 m 4.368,-3.168 0,0.624 -1.824,0 c 0.064,-0.25597 0.25599,-0.41597 0.576,-0.48 0.31999,-0.096 0.60799,-0.14397 0.864,-0.144 l 0.384,0 m 3.984,-2.256 c 0.35199,3e-5 0.94399,0.016 1.776,0.048 0.83198,3e-5 1.71198,0.016 2.64,0.048 0.92798,3e-5 1.79198,0.016 2.592,0.048 0.83198,3e-5 1.42398,3e-5 1.776,0 0.096,3e-5 0.28798,0.016 0.576,0.048 0.31998,0.032 0.65598,0.08 1.008,0.144 0.38398,0.032 0.76798,0.08 1.152,0.144 0.38398,0.064 0.68798,0.11203 0.912,0.144 0.032,3e-5 0.22397,0.032 0.576,0.096 0.35197,0.032 0.73597,0.096 1.152,0.192 0.41597,0.096 0.78397,0.24003 1.104,0.432 0.35197,0.16003 0.52797,0.36803 0.528,0.624 l -12.96,0 c -0.89601,3e-5 -1.60001,-0.096 -2.112,-0.288 -0.48001,-0.22397 -0.72001,-0.78397 -0.72,-1.68 m -2.64,1.056 0.912,0 -0.432,0.48 -0.48,-0.48 m 19.632,-0.672 4.56,0 -0.912,-1.152 c -2.40003,-0.15997 -4.84803,-0.36797 -7.344,-0.624 -2.46402,-0.25596 -4.88002,-0.65596 -7.248,-1.2 0.38398,-0.31996 1.00798,-0.54396 1.872,-0.672 0.89598,-0.15996 1.85598,-0.25596 2.88,-0.288 1.02398,-0.064 2.01597,-0.08 2.976,-0.048 0.95997,0.032 1.67997,0.048 2.16,0.048 0.95997,4e-5 1.96797,0.016 3.024,0.048 1.08797,4e-5 2.14397,0.096 3.168,0.288 1.05596,0.19204 2.04796,0.51204 2.976,0.96 0.92796,0.44804 1.71196,1.10403 2.352,1.968 -0.44804,0.12803 -0.88004,0.38403 -1.296,0.768 -0.38404,0.35203 -0.70404,0.70403 -0.96,1.056 l -6.864,0 c -0.25603,3e-5 -0.52803,-0.12797 -0.816,-0.384 -0.28803,-0.25597 -0.46403,-0.51197 -0.528,-0.768 m -21.216,-0.24 0.24,0 c -0.064,0.064 -0.22401,0.16003 -0.48,0.288 -0.22401,0.096 -0.36801,0.16003 -0.432,0.192 l -0.24,0 -0.24,0 c 0.064,-0.064 0.20799,-0.14397 0.432,-0.24 0.25599,-0.12797 0.41599,-0.20797 0.48,-0.24 l 0.24,0"
         style="font-size:48px;font-variant:normal;font-stretch:normal;font-family:Incubus;-inkscape-font-specification:Incubus"
         id="path3062" />
      <path
         d="m 400.557,633.58842 c 0,0.96001 0.128,2.04801 0.384,3.264 0.256,1.18401 0.608,2.41601 1.056,3.696 0.48,1.24801 1.04,2.51201 1.68,3.792 0.64,1.248 1.344,2.416 2.112,3.504 0.79999,1.088 1.64799,2.048 2.544,2.88 0.92799,0.832 1.87199,1.456 2.832,1.872 0.47999,0.192 0.99199,0.336 1.536,0.432 0.57599,0.064 1.15199,0.096 1.728,0.096 0.57599,0.032 1.13598,0.032 1.68,0 0.57598,0 1.08798,0 1.536,0 0.15998,0 0.44798,0 0.864,0 0.44798,0 0.91198,-0.016 1.392,-0.048 0.51198,0 0.97598,0 1.392,0 0.44798,0 0.75198,0 0.912,0 1.43998,-0.384 2.67198,-1.152 3.696,-2.304 1.02397,-1.152 1.88797,-2.512 2.592,-4.08 0.73597,-1.6 1.31197,-3.32799 1.728,-5.184 0.44797,-1.85599 0.78397,-3.66399 1.008,-5.424 0.25597,-1.79199 0.41597,-3.45598 0.48,-4.992 0.096,-1.56798 0.14397,-2.84798 0.144,-3.84 -3e-5,-3.39197 -0.62403,-6.41597 -1.872,-9.072 -1.21603,-2.68797 -3.16803,-5.13596 -5.856,-7.344 -0.41602,0.064 -1.00802,0.096 -1.776,0.096 -0.76802,-0.032 -1.52002,-0.12796 -2.256,-0.288 -0.73602,-0.15996 -1.39202,-0.41596 -1.968,-0.768 -0.54402,-0.35196 -0.81602,-0.86396 -0.816,-1.536 -0.064,4e-5 -0.048,0.016 0.048,0.048 0.096,4e-5 0.11198,0.016 0.048,0.048 l -0.96,0.48 c -0.032,0.032 -0.12802,0.096 -0.288,0.192 -0.12802,0.096 -0.27202,0.20804 -0.432,0.336 -0.16002,0.096 -0.32002,0.19204 -0.48,0.288 -0.12801,0.096 -0.20801,0.14404 -0.24,0.144 -2.40001,1.05604 -4.51201,2.38404 -6.336,3.984 -1.79201,1.60003 -3.29601,3.42403 -4.512,5.472 -1.184,2.01603 -2.08,4.22403 -2.688,6.624 -0.608,2.40002 -0.912,4.94402 -0.912,7.632 m 21.168,12.768 c -2e-5,0.032 -2e-5,0.08 0,0.144 0.032,0.032 0.048,0.064 0.048,0.096 -2e-5,0.448 -0.17602,0.896 -0.528,1.344 -0.32002,0.416 -0.72002,0.8 -1.2,1.152 -0.48002,0.352 -0.99202,0.64 -1.536,0.864 -0.51202,0.224 -0.94402,0.336 -1.296,0.336 -2e-5,-0.224 0.032,-0.384 0.096,-0.48 0.064,-0.096 0.14398,-0.16 0.24,-0.192 0.12798,-0.064 0.25598,-0.112 0.384,-0.144 0.12798,-0.064 0.27198,-0.144 0.432,-0.24 0.12798,-0.096 0.35198,-0.272 0.672,-0.528 0.31998,-0.288 0.65598,-0.592 1.008,-0.912 0.38398,-0.32 0.71998,-0.608 1.008,-0.864 0.31998,-0.288 0.54398,-0.48 0.672,-0.576 m 3.84,0.48 0.576,0 c -3e-5,0.352 -0.096,0.688 -0.288,1.008 -0.19203,0.32 -0.41603,0.64 -0.672,0.96 -0.25602,0.288 -0.52802,0.56 -0.816,0.816 -0.28802,0.224 -0.52802,0.416 -0.72,0.576 -2e-5,0 -0.032,0.016 -0.096,0.048 -0.064,0 -0.11202,0 -0.144,0 -0.032,0 -0.08,0 -0.144,0 -0.032,-0.032 -0.064,-0.048 -0.096,-0.048 0.54398,-0.384 1.00798,-0.912 1.392,-1.584 0.41598,-0.672 0.75197,-1.264 1.008,-1.776 m -13.44,1.44 c 0.032,-0.064 0.096,-0.144 0.192,-0.24 0.12799,-0.128 0.22399,-0.208 0.288,-0.24 l 0.48,0 5.28,-0.96 0.24,0 0.24,0 c -0.54402,0.832 -1.16802,1.376 -1.872,1.632 -0.70402,0.224 -1.52002,0.336 -2.448,0.336 -0.41601,0 -0.84801,0 -1.296,0 -0.41601,0 -0.78401,-0.176 -1.104,-0.528 m -5.28,-9.84 0,-0.24 c 0.032,-0.28799 0.064,-0.65599 0.096,-1.104 0.064,-0.44799 0.11199,-0.89599 0.144,-1.344 0.064,-0.47999 0.11199,-0.89599 0.144,-1.248 0.064,-0.35199 0.096,-0.55998 0.096,-0.624 0.032,-0.15998 0.096,-0.41598 0.192,-0.768 0.12799,-0.38398 0.22399,-0.60798 0.288,-0.672 0.032,-0.064 0.08,-0.11198 0.144,-0.144 0.096,-0.064 0.15999,-0.096 0.192,-0.096 -1e-5,1.15202 0.016,2.33601 0.048,3.552 0.032,1.21601 0.14399,2.41601 0.336,3.6 0.19199,1.15201 0.49599,2.28801 0.912,3.408 0.41599,1.12001 0.99199,2.16 1.728,3.12 -0.032,0 -0.11201,0.016 -0.24,0.048 -0.096,0 -0.17601,0 -0.24,0 -0.64001,0 -1.20001,-0.304 -1.68,-0.912 -0.44801,-0.608 -0.84801,-1.32799 -1.2,-2.16 -0.32001,-0.83199 -0.56001,-1.66399 -0.72,-2.496 -0.16001,-0.83199 -0.24001,-1.47199 -0.24,-1.92 m 3.36,0.96 0,-0.72 0.96,1.92 0.48,-0.96 c -0.064,-1.98399 -0.096,-3.99999 -0.096,-6.048 0.032,-2.04798 0.20799,-4.06398 0.528,-6.048 0.35199,-2.01598 0.89599,-3.95197 1.632,-5.808 0.73599,-1.85597 1.80798,-3.56797 3.216,-5.136 l 0.24,0 c 0.95998,3e-5 1.91998,0.17603 2.88,0.528 0.95998,0.32003 1.80798,0.78403 2.544,1.392 0.73598,0.60803 1.32798,1.34403 1.776,2.208 0.47998,0.83203 0.71998,1.74403 0.72,2.736 -2e-5,0.86402 -0.08,2.01602 -0.24,3.456 -0.12802,1.44002 -0.36802,2.99202 -0.72,4.656 -0.32002,1.66402 -0.75202,3.34401 -1.296,5.04 -0.54402,1.69601 -1.21602,3.24801 -2.016,4.656 -0.76802,1.37601 -1.68002,2.49601 -2.736,3.36 -1.02402,0.864 -2.19202,1.296 -3.504,1.296 -0.80001,0 -1.48801,-0.208 -2.064,-0.624 -0.54401,-0.448 -0.99201,-0.992 -1.344,-1.632 -0.32001,-0.67199 -0.56001,-1.39199 -0.72,-2.16 -0.16001,-0.76799 -0.24001,-1.47199 -0.24,-2.112 m 9.6,6 c 0.25598,0 0.38398,0.16 0.384,0.48 -2e-5,0.32 -0.12802,0.48 -0.384,0.48 -0.25602,0 -0.38402,-0.16 -0.384,-0.48 -2e-5,-0.32 0.12798,-0.48 0.384,-0.48 m 9.6,-19.68 c -3e-5,0.12802 -3e-5,0.36802 0,0.72 -3e-5,0.35202 -3e-5,0.72002 0,1.104 0.032,0.38402 0.048,0.75202 0.048,1.104 -3e-5,0.32002 -3e-5,0.54402 0,0.672 -3e-5,0.32002 -0.016,0.80002 -0.048,1.44 -0.032,0.64002 -0.08,1.36002 -0.144,2.16 -0.064,0.76802 -0.16003,1.58401 -0.288,2.448 -0.12803,0.83201 -0.28803,1.61601 -0.48,2.352 -0.16003,0.73601 -0.36803,1.37601 -0.624,1.92 -0.25603,0.51201 -0.54403,0.83201 -0.864,0.96 l 0,-0.72 c -3e-5,-2.36799 0.20797,-4.75199 0.624,-7.152 0.44797,-2.39998 1.03997,-4.73598 1.776,-7.008 m -25.008,5.76 c 0,-1.63198 0.208,-3.31198 0.624,-5.04 0.44799,-1.72798 1.21599,-3.24797 2.304,-4.56 0.22399,-0.25597 0.51199,-0.57597 0.864,-0.96 0.35199,-0.38397 0.70399,-0.75197 1.056,-1.104 0.35199,-0.35197 0.65599,-0.65597 0.912,-0.912 0.28799,-0.25597 0.46399,-0.38397 0.528,-0.384 l 0.48,0 c -0.41601,1.47203 -0.92801,2.94403 -1.536,4.416 -0.60801,1.44002 -1.20001,2.89602 -1.776,4.368 -0.57601,1.44002 -1.10401,2.91202 -1.584,4.416 -0.44801,1.47202 -0.73601,2.99201 -0.864,4.56 l -0.48,0 c -0.032,10e-6 -0.08,-0.11199 -0.144,-0.336 -0.032,-0.22399 -0.08,-0.47999 -0.144,-0.768 -0.032,-0.31999 -0.08,-0.63999 -0.144,-0.96 -0.032,-0.31998 -0.048,-0.59198 -0.048,-0.816 0,-0.064 -0.016,-0.33598 -0.048,-0.816 0,-0.47998 0,-0.84798 0,-1.104 m 20.688,4.32 c 0.15997,0.064 0.23997,0.14401 0.24,0.24 -3e-5,0.096 -0.08,0.17601 -0.24,0.24 -0.16002,0.064 -0.24002,-0.016 -0.24,-0.24 -2e-5,-0.22399 0.08,-0.30399 0.24,-0.24 m 0.96,-4.32 c 0.15997,0.12802 0.23997,0.36802 0.24,0.72 -3e-5,0.35202 -0.08,0.59202 -0.24,0.72 -0.064,0.064 -0.12803,0.016 -0.192,-0.144 -0.032,-0.15998 -0.048,-0.35198 -0.048,-0.576 -3e-5,-0.22398 0.016,-0.41598 0.048,-0.576 0.064,-0.15998 0.12797,-0.20798 0.192,-0.144 m -17.28,-1.44 c -0.032,0.16002 -0.11201,0.24002 -0.24,0.24 -0.12801,2e-5 -0.20801,-0.08 -0.24,-0.24 -0.032,-0.15998 0.048,-0.23998 0.24,-0.24 0.19199,2e-5 0.27199,0.08 0.24,0.24 m 17.184,-12.48 0.576,0 c 0.15997,3e-5 0.33597,0.19203 0.528,0.576 0.19197,0.38403 0.35197,0.83203 0.48,1.344 0.15997,0.48003 0.28797,0.96003 0.384,1.44 0.096,0.48003 0.14397,0.80003 0.144,0.96 l -0.576,0 c -3e-5,3e-5 -0.064,-0.14397 -0.192,-0.432 -0.12803,-0.28797 -0.27203,-0.63997 -0.432,-1.056 -0.12803,-0.41597 -0.27203,-0.83197 -0.432,-1.248 -0.16003,-0.44797 -0.28803,-0.81597 -0.384,-1.104 -3e-5,-0.064 -0.016,-0.14397 -0.048,-0.24 -0.032,-0.096 -0.048,-0.17597 -0.048,-0.24 m -17.184,-0.48 0.48,0 -0.48,0.48 0,-0.48 m 9.552,-3.12 c -2e-5,-0.032 -2e-5,-0.08 0,-0.144 0.032,-0.064 0.048,-0.096 0.048,-0.096 0.032,-0.064 0.096,-0.14396 0.192,-0.24 0.12798,-0.12796 0.22398,-0.20796 0.288,-0.24 l 0.24,0 c 0.41598,4e-5 0.87998,0.096 1.392,0.288 0.54398,0.19204 1.03998,0.46404 1.488,0.816 0.47998,0.32003 0.87998,0.70403 1.2,1.152 0.31998,0.41603 0.47998,0.86403 0.48,1.344 l 0,0.24 c -0.28802,-0.15997 -0.73602,-0.33597 -1.344,-0.528 -0.57602,-0.19197 -1.16802,-0.39997 -1.776,-0.624 -0.57602,-0.25597 -1.08802,-0.54397 -1.536,-0.864 -0.44802,-0.31997 -0.67202,-0.68797 -0.672,-1.104 m -5.232,-0.24 c -10e-6,0.032 -10e-6,0.08 0,0.144 0.032,0.032 0.048,0.064 0.048,0.096 -10e-6,0.25603 -0.11201,0.52803 -0.336,0.816 -0.19201,0.25603 -0.44801,0.49603 -0.768,0.72 -0.28801,0.19203 -0.60801,0.35203 -0.96,0.48 -0.32001,0.12803 -0.60801,0.19203 -0.864,0.192 -0.064,3e-5 -0.16001,3e-5 -0.288,0 -0.096,-0.032 -0.16001,-0.048 -0.192,-0.048 0.44799,-0.54397 0.95999,-1.00797 1.536,-1.392 0.57599,-0.41597 1.18399,-0.75196 1.824,-1.008 m 2.64,-0.528 c 0.032,4e-5 0.064,0.016 0.096,0.048 0.064,4e-5 0.11198,4e-5 0.144,0 l -0.96,0.96 c -10e-6,-0.032 -0.016,-0.064 -0.048,-0.096 -10e-6,-0.064 -10e-6,-0.11196 0,-0.144 -10e-6,-0.032 -10e-6,-0.08 0,-0.144 0.032,-0.064 0.048,-0.096 0.048,-0.096 0.032,-0.064 0.096,-0.14396 0.192,-0.24 0.12798,-0.12796 0.22398,-0.20796 0.288,-0.24 -2e-5,4e-5 0.032,4e-5 0.096,0 0.064,-0.032 0.11198,-0.048 0.144,-0.048 m 8.88,-1.392 c 0.25598,4e-5 0.38398,0.16004 0.384,0.48 -2e-5,0.32004 -0.12802,0.48004 -0.384,0.48 -0.25602,4e-5 -0.38402,-0.15996 -0.384,-0.48 -2e-5,-0.31996 0.12798,-0.47996 0.384,-0.48 m -0.48,0 c -0.064,0.16004 -0.14402,0.24004 -0.24,0.24 -0.096,4e-5 -0.17602,-0.08 -0.24,-0.24 -0.064,-0.15996 0.016,-0.23996 0.24,-0.24 0.22398,4e-5 0.30398,0.08 0.24,0.24"
         style="font-size:48px;font-variant:normal;font-stretch:normal;font-family:Incubus;-inkscape-font-specification:Incubus"
         id="path3064" />
      <path
         d="m 432.71325,633.58842 c 0,0.96001 0.128,2.04801 0.384,3.264 0.256,1.18401 0.608,2.41601 1.056,3.696 0.48,1.24801 1.04,2.51201 1.68,3.792 0.64,1.248 1.344,2.416 2.112,3.504 0.79999,1.088 1.64799,2.048 2.544,2.88 0.92799,0.832 1.87199,1.456 2.832,1.872 0.47999,0.192 0.99199,0.336 1.536,0.432 0.57599,0.064 1.15199,0.096 1.728,0.096 0.57599,0.032 1.13598,0.032 1.68,0 0.57598,0 1.08798,0 1.536,0 0.15998,0 0.44798,0 0.864,0 0.44798,0 0.91198,-0.016 1.392,-0.048 0.51198,0 0.97598,0 1.392,0 0.44798,0 0.75198,0 0.912,0 1.43998,-0.384 2.67198,-1.152 3.696,-2.304 1.02397,-1.152 1.88797,-2.512 2.592,-4.08 0.73597,-1.6 1.31197,-3.32799 1.728,-5.184 0.44797,-1.85599 0.78397,-3.66399 1.008,-5.424 0.25597,-1.79199 0.41597,-3.45598 0.48,-4.992 0.096,-1.56798 0.14397,-2.84798 0.144,-3.84 -3e-5,-3.39197 -0.62403,-6.41597 -1.872,-9.072 -1.21603,-2.68797 -3.16803,-5.13596 -5.856,-7.344 -0.41602,0.064 -1.00802,0.096 -1.776,0.096 -0.76802,-0.032 -1.52002,-0.12796 -2.256,-0.288 -0.73602,-0.15996 -1.39202,-0.41596 -1.968,-0.768 -0.54402,-0.35196 -0.81602,-0.86396 -0.816,-1.536 -0.064,4e-5 -0.048,0.016 0.048,0.048 0.096,4e-5 0.11198,0.016 0.048,0.048 l -0.96,0.48 c -0.032,0.032 -0.12802,0.096 -0.288,0.192 -0.12802,0.096 -0.27202,0.20804 -0.432,0.336 -0.16002,0.096 -0.32002,0.19204 -0.48,0.288 -0.12801,0.096 -0.20801,0.14404 -0.24,0.144 -2.40001,1.05604 -4.51201,2.38404 -6.336,3.984 -1.79201,1.60003 -3.29601,3.42403 -4.512,5.472 -1.184,2.01603 -2.08,4.22403 -2.688,6.624 -0.608,2.40002 -0.912,4.94402 -0.912,7.632 m 21.168,12.768 c -2e-5,0.032 -2e-5,0.08 0,0.144 0.032,0.032 0.048,0.064 0.048,0.096 -2e-5,0.448 -0.17602,0.896 -0.528,1.344 -0.32002,0.416 -0.72002,0.8 -1.2,1.152 -0.48002,0.352 -0.99202,0.64 -1.536,0.864 -0.51202,0.224 -0.94402,0.336 -1.296,0.336 -2e-5,-0.224 0.032,-0.384 0.096,-0.48 0.064,-0.096 0.14398,-0.16 0.24,-0.192 0.12798,-0.064 0.25598,-0.112 0.384,-0.144 0.12798,-0.064 0.27198,-0.144 0.432,-0.24 0.12798,-0.096 0.35198,-0.272 0.672,-0.528 0.31998,-0.288 0.65598,-0.592 1.008,-0.912 0.38398,-0.32 0.71998,-0.608 1.008,-0.864 0.31998,-0.288 0.54398,-0.48 0.672,-0.576 m 3.84,0.48 0.576,0 c -3e-5,0.352 -0.096,0.688 -0.288,1.008 -0.19203,0.32 -0.41603,0.64 -0.672,0.96 -0.25602,0.288 -0.52802,0.56 -0.816,0.816 -0.28802,0.224 -0.52802,0.416 -0.72,0.576 -2e-5,0 -0.032,0.016 -0.096,0.048 -0.064,0 -0.11202,0 -0.144,0 -0.032,0 -0.08,0 -0.144,0 -0.032,-0.032 -0.064,-0.048 -0.096,-0.048 0.54398,-0.384 1.00798,-0.912 1.392,-1.584 0.41598,-0.672 0.75197,-1.264 1.008,-1.776 m -13.44,1.44 c 0.032,-0.064 0.096,-0.144 0.192,-0.24 0.12799,-0.128 0.22399,-0.208 0.288,-0.24 l 0.48,0 5.28,-0.96 0.24,0 0.24,0 c -0.54402,0.832 -1.16802,1.376 -1.872,1.632 -0.70402,0.224 -1.52002,0.336 -2.448,0.336 -0.41601,0 -0.84801,0 -1.296,0 -0.41601,0 -0.78401,-0.176 -1.104,-0.528 m -5.28,-9.84 0,-0.24 c 0.032,-0.28799 0.064,-0.65599 0.096,-1.104 0.064,-0.44799 0.11199,-0.89599 0.144,-1.344 0.064,-0.47999 0.11199,-0.89599 0.144,-1.248 0.064,-0.35199 0.096,-0.55998 0.096,-0.624 0.032,-0.15998 0.096,-0.41598 0.192,-0.768 0.12799,-0.38398 0.22399,-0.60798 0.288,-0.672 0.032,-0.064 0.08,-0.11198 0.144,-0.144 0.096,-0.064 0.15999,-0.096 0.192,-0.096 -1e-5,1.15202 0.016,2.33601 0.048,3.552 0.032,1.21601 0.14399,2.41601 0.336,3.6 0.19199,1.15201 0.49599,2.28801 0.912,3.408 0.41599,1.12001 0.99199,2.16 1.728,3.12 -0.032,0 -0.11201,0.016 -0.24,0.048 -0.096,0 -0.17601,0 -0.24,0 -0.64001,0 -1.20001,-0.304 -1.68,-0.912 -0.44801,-0.608 -0.84801,-1.32799 -1.2,-2.16 -0.32001,-0.83199 -0.56001,-1.66399 -0.72,-2.496 -0.16001,-0.83199 -0.24001,-1.47199 -0.24,-1.92 m 3.36,0.96 0,-0.72 0.96,1.92 0.48,-0.96 c -0.064,-1.98399 -0.096,-3.99999 -0.096,-6.048 0.032,-2.04798 0.20799,-4.06398 0.528,-6.048 0.35199,-2.01598 0.89599,-3.95197 1.632,-5.808 0.73599,-1.85597 1.80798,-3.56797 3.216,-5.136 l 0.24,0 c 0.95998,3e-5 1.91998,0.17603 2.88,0.528 0.95998,0.32003 1.80798,0.78403 2.544,1.392 0.73598,0.60803 1.32798,1.34403 1.776,2.208 0.47998,0.83203 0.71998,1.74403 0.72,2.736 -2e-5,0.86402 -0.08,2.01602 -0.24,3.456 -0.12802,1.44002 -0.36802,2.99202 -0.72,4.656 -0.32002,1.66402 -0.75202,3.34401 -1.296,5.04 -0.54402,1.69601 -1.21602,3.24801 -2.016,4.656 -0.76802,1.37601 -1.68002,2.49601 -2.736,3.36 -1.02402,0.864 -2.19202,1.296 -3.504,1.296 -0.80001,0 -1.48801,-0.208 -2.064,-0.624 -0.54401,-0.448 -0.99201,-0.992 -1.344,-1.632 -0.32001,-0.67199 -0.56001,-1.39199 -0.72,-2.16 -0.16001,-0.76799 -0.24001,-1.47199 -0.24,-2.112 m 9.6,6 c 0.25598,0 0.38398,0.16 0.384,0.48 -2e-5,0.32 -0.12802,0.48 -0.384,0.48 -0.25602,0 -0.38402,-0.16 -0.384,-0.48 -2e-5,-0.32 0.12798,-0.48 0.384,-0.48 m 9.6,-19.68 c -3e-5,0.12802 -3e-5,0.36802 0,0.72 -3e-5,0.35202 -3e-5,0.72002 0,1.104 0.032,0.38402 0.048,0.75202 0.048,1.104 -3e-5,0.32002 -3e-5,0.54402 0,0.672 -3e-5,0.32002 -0.016,0.80002 -0.048,1.44 -0.032,0.64002 -0.08,1.36002 -0.144,2.16 -0.064,0.76802 -0.16003,1.58401 -0.288,2.448 -0.12803,0.83201 -0.28803,1.61601 -0.48,2.352 -0.16003,0.73601 -0.36803,1.37601 -0.624,1.92 -0.25603,0.51201 -0.54403,0.83201 -0.864,0.96 l 0,-0.72 c -3e-5,-2.36799 0.20797,-4.75199 0.624,-7.152 0.44797,-2.39998 1.03997,-4.73598 1.776,-7.008 m -25.008,5.76 c 0,-1.63198 0.208,-3.31198 0.624,-5.04 0.44799,-1.72798 1.21599,-3.24797 2.304,-4.56 0.22399,-0.25597 0.51199,-0.57597 0.864,-0.96 0.35199,-0.38397 0.70399,-0.75197 1.056,-1.104 0.35199,-0.35197 0.65599,-0.65597 0.912,-0.912 0.28799,-0.25597 0.46399,-0.38397 0.528,-0.384 l 0.48,0 c -0.41601,1.47203 -0.92801,2.94403 -1.536,4.416 -0.60801,1.44002 -1.20001,2.89602 -1.776,4.368 -0.57601,1.44002 -1.10401,2.91202 -1.584,4.416 -0.44801,1.47202 -0.73601,2.99201 -0.864,4.56 l -0.48,0 c -0.032,10e-6 -0.08,-0.11199 -0.144,-0.336 -0.032,-0.22399 -0.08,-0.47999 -0.144,-0.768 -0.032,-0.31999 -0.08,-0.63999 -0.144,-0.96 -0.032,-0.31998 -0.048,-0.59198 -0.048,-0.816 0,-0.064 -0.016,-0.33598 -0.048,-0.816 0,-0.47998 0,-0.84798 0,-1.104 m 20.688,4.32 c 0.15997,0.064 0.23997,0.14401 0.24,0.24 -3e-5,0.096 -0.08,0.17601 -0.24,0.24 -0.16002,0.064 -0.24002,-0.016 -0.24,-0.24 -2e-5,-0.22399 0.08,-0.30399 0.24,-0.24 m 0.96,-4.32 c 0.15997,0.12802 0.23997,0.36802 0.24,0.72 -3e-5,0.35202 -0.08,0.59202 -0.24,0.72 -0.064,0.064 -0.12803,0.016 -0.192,-0.144 -0.032,-0.15998 -0.048,-0.35198 -0.048,-0.576 -3e-5,-0.22398 0.016,-0.41598 0.048,-0.576 0.064,-0.15998 0.12797,-0.20798 0.192,-0.144 m -17.28,-1.44 c -0.032,0.16002 -0.11201,0.24002 -0.24,0.24 -0.12801,2e-5 -0.20801,-0.08 -0.24,-0.24 -0.032,-0.15998 0.048,-0.23998 0.24,-0.24 0.19199,2e-5 0.27199,0.08 0.24,0.24 m 17.184,-12.48 0.576,0 c 0.15997,3e-5 0.33597,0.19203 0.528,0.576 0.19197,0.38403 0.35197,0.83203 0.48,1.344 0.15997,0.48003 0.28797,0.96003 0.384,1.44 0.096,0.48003 0.14397,0.80003 0.144,0.96 l -0.576,0 c -3e-5,3e-5 -0.064,-0.14397 -0.192,-0.432 -0.12803,-0.28797 -0.27203,-0.63997 -0.432,-1.056 -0.12803,-0.41597 -0.27203,-0.83197 -0.432,-1.248 -0.16003,-0.44797 -0.28803,-0.81597 -0.384,-1.104 -3e-5,-0.064 -0.016,-0.14397 -0.048,-0.24 -0.032,-0.096 -0.048,-0.17597 -0.048,-0.24 m -17.184,-0.48 0.48,0 -0.48,0.48 0,-0.48 m 9.552,-3.12 c -2e-5,-0.032 -2e-5,-0.08 0,-0.144 0.032,-0.064 0.048,-0.096 0.048,-0.096 0.032,-0.064 0.096,-0.14396 0.192,-0.24 0.12798,-0.12796 0.22398,-0.20796 0.288,-0.24 l 0.24,0 c 0.41598,4e-5 0.87998,0.096 1.392,0.288 0.54398,0.19204 1.03998,0.46404 1.488,0.816 0.47998,0.32003 0.87998,0.70403 1.2,1.152 0.31998,0.41603 0.47998,0.86403 0.48,1.344 l 0,0.24 c -0.28802,-0.15997 -0.73602,-0.33597 -1.344,-0.528 -0.57602,-0.19197 -1.16802,-0.39997 -1.776,-0.624 -0.57602,-0.25597 -1.08802,-0.54397 -1.536,-0.864 -0.44802,-0.31997 -0.67202,-0.68797 -0.672,-1.104 m -5.232,-0.24 c -10e-6,0.032 -10e-6,0.08 0,0.144 0.032,0.032 0.048,0.064 0.048,0.096 -10e-6,0.25603 -0.11201,0.52803 -0.336,0.816 -0.19201,0.25603 -0.44801,0.49603 -0.768,0.72 -0.28801,0.19203 -0.60801,0.35203 -0.96,0.48 -0.32001,0.12803 -0.60801,0.19203 -0.864,0.192 -0.064,3e-5 -0.16001,3e-5 -0.288,0 -0.096,-0.032 -0.16001,-0.048 -0.192,-0.048 0.44799,-0.54397 0.95999,-1.00797 1.536,-1.392 0.57599,-0.41597 1.18399,-0.75196 1.824,-1.008 m 2.64,-0.528 c 0.032,4e-5 0.064,0.016 0.096,0.048 0.064,4e-5 0.11198,4e-5 0.144,0 l -0.96,0.96 c -10e-6,-0.032 -0.016,-0.064 -0.048,-0.096 -10e-6,-0.064 -10e-6,-0.11196 0,-0.144 -10e-6,-0.032 -10e-6,-0.08 0,-0.144 0.032,-0.064 0.048,-0.096 0.048,-0.096 0.032,-0.064 0.096,-0.14396 0.192,-0.24 0.12798,-0.12796 0.22398,-0.20796 0.288,-0.24 -2e-5,4e-5 0.032,4e-5 0.096,0 0.064,-0.032 0.11198,-0.048 0.144,-0.048 m 8.88,-1.392 c 0.25598,4e-5 0.38398,0.16004 0.384,0.48 -2e-5,0.32004 -0.12802,0.48004 -0.384,0.48 -0.25602,4e-5 -0.38402,-0.15996 -0.384,-0.48 -2e-5,-0.31996 0.12798,-0.47996 0.384,-0.48 m -0.48,0 c -0.064,0.16004 -0.14402,0.24004 -0.24,0.24 -0.096,4e-5 -0.17602,-0.08 -0.24,-0.24 -0.064,-0.15996 0.016,-0.23996 0.24,-0.24 0.22398,4e-5 0.30398,0.08 0.24,0.24"
         style="font-size:48px;font-variant:normal;font-stretch:normal;font-family:Incubus;-inkscape-font-specification:Incubus"
         id="path3066" />
      <path
         d="m 489.8775,647.79642 c 0.032,0.16 0.08,0.448 0.144,0.864 0.096,0.416 0.19197,0.864 0.288,1.344 0.096,0.448 0.19197,0.88 0.288,1.296 0.096,0.384 0.17597,0.656 0.24,0.816 0.032,0.096 0.096,0.272 0.192,0.528 0.12797,0.224 0.22397,0.368 0.288,0.432 -3e-5,0 0.016,0 0.048,0 0.064,0.032 0.12797,0.048 0.192,0.048 0.032,0 0.08,-0.016 0.144,-0.048 0.064,0 0.096,0 0.096,0 0.064,-0.032 0.14397,-0.096 0.24,-0.192 0.12797,-0.128 0.20797,-0.224 0.24,-0.288 -3e-5,-0.576 0.016,-1.472 0.048,-2.688 0.032,-1.248 0.064,-2.64 0.096,-4.176 0.032,-1.536 0.064,-3.15199 0.096,-4.848 0.032,-1.72799 0.064,-3.35999 0.096,-4.896 0.032,-1.56799 0.064,-2.95998 0.096,-4.176 0.032,-1.21598 0.048,-2.12798 0.048,-2.736 l 0,-1.104 c -3e-5,-1.27998 -0.096,-2.52798 -0.288,-3.744 -0.16003,-1.24797 -0.24003,-2.51197 -0.24,-3.792 -3e-5,-0.096 -3e-5,-0.27197 0,-0.528 -3e-5,-0.28797 -3e-5,-0.59197 0,-0.912 0.032,-0.31997 0.048,-0.60797 0.048,-0.864 -3e-5,-0.28797 -3e-5,-0.47997 0,-0.576 0.096,-0.032 0.27197,-0.096 0.528,-0.192 0.28797,-0.12797 0.59197,-0.23997 0.912,-0.336 0.31997,-0.096 0.60797,-0.17597 0.864,-0.24 0.28797,-0.096 0.47997,-0.15997 0.576,-0.192 0.38397,-0.064 0.97597,-0.17597 1.776,-0.336 0.79997,-0.15997 1.69597,-0.33597 2.688,-0.528 1.02396,-0.19197 2.09596,-0.38397 3.216,-0.576 1.11996,-0.22397 2.17596,-0.43197 3.168,-0.624 1.02396,-0.19197 1.93596,-0.35197 2.736,-0.48 0.79995,-0.15996 1.39195,-0.27196 1.776,-0.336 0.064,-0.032 0.14395,-0.096 0.24,-0.192 0.12795,-0.12796 0.20795,-0.22396 0.24,-0.288 -5e-5,4e-5 -5e-5,-0.032 0,-0.096 0.0319,-0.064 0.048,-0.11196 0.048,-0.144 -5e-5,-0.35196 -0.14405,-0.55996 -0.432,-0.624 -0.25605,-0.096 -0.51205,-0.14396 -0.768,-0.144 -0.86404,4e-5 -1.72804,0.064 -2.592,0.192 -0.86404,0.12804 -1.72804,0.28804 -2.592,0.48 -0.86404,0.16004 -1.72804,0.32004 -2.592,0.48 -0.86404,0.16004 -1.72804,0.27204 -2.592,0.336 -0.096,4e-5 -0.36803,4e-5 -0.816,0 -0.41603,4e-5 -0.86403,4e-5 -1.344,0 -0.48003,4e-5 -0.94403,4e-5 -1.392,0 -0.41603,4e-5 -0.67203,4e-5 -0.768,0 -0.57603,0.064 -1.60003,0.19204 -3.072,0.384 -1.44003,0.16003 -2.97602,0.35203 -4.608,0.576 -1.63202,0.19203 -3.18402,0.38403 -4.656,0.576 -1.44002,0.16003 -2.44802,0.28803 -3.024,0.384 -0.32002,0.12803 -0.91201,0.27203 -1.776,0.432 -0.83201,0.16003 -1.80801,0.33603 -2.928,0.528 -1.12001,0.19203 -2.28801,0.41603 -3.504,0.672 -1.18401,0.22403 -2.272,0.48003 -3.264,0.768 -0.992,0.25603 -1.824,0.52803 -2.496,0.816 -0.64,0.28803 -0.96,0.57603 -0.96,0.864 0,0.064 0.16,0.24003 0.48,0.528 0.32,0.25603 0.688,0.56003 1.104,0.912 0.416,0.32003 0.816,0.60803 1.2,0.864 0.416,0.25603 0.688,0.38403 0.816,0.384 1.59999,3e-5 3.16799,-0.19197 4.704,-0.576 1.53599,-0.41597 3.07199,-0.86397 4.608,-1.344 1.53599,-0.47997 3.07198,-0.91197 4.608,-1.296 1.53598,-0.41597 3.10398,-0.62397 4.704,-0.624 -2e-5,3.96803 0.08,7.88802 0.24,11.76 0.19198,3.84001 0.39998,7.74401 0.624,11.712 -2e-5,0.25601 -0.032,0.75201 -0.096,1.488 -0.032,0.704 -0.016,1.408 0.048,2.112 0.096,0.704 0.27198,1.296 0.528,1.776 0.28798,0.48 0.76798,0.608 1.44,0.384 m 0,-1.44 c 0.15997,0.032 0.23997,0.112 0.24,0.24 -3e-5,0.128 -0.08,0.208 -0.24,0.24 -0.16003,0.032 -0.24003,-0.048 -0.24,-0.24 -3e-5,-0.192 0.08,-0.272 0.24,-0.24 m 0,-6.72 c 0.15997,0.032 0.23997,0.11201 0.24,0.24 -3e-5,0.12801 -0.08,0.20801 -0.24,0.24 -0.16003,0.032 -0.24003,-0.048 -0.24,-0.24 -3e-5,-0.19199 0.08,-0.27199 0.24,-0.24 m 0,-2.88 c 0.15997,0.12801 0.23997,0.36801 0.24,0.72 -3e-5,0.35201 -0.08,0.59201 -0.24,0.72 -0.064,0.064 -0.12803,0.016 -0.192,-0.144 -0.032,-0.15999 -0.048,-0.35199 -0.048,-0.576 -3e-5,-0.22399 0.016,-0.41599 0.048,-0.576 0.064,-0.15999 0.12797,-0.20799 0.192,-0.144 m 0,-3.84 c 0.064,0.064 0.14397,0.22402 0.24,0.48 0.12797,0.25602 0.20797,0.41602 0.24,0.48 l 0,0.24 0,0.24 c -0.032,0.12801 -0.11203,0.38401 -0.24,0.768 -0.096,0.35201 -0.17603,0.57601 -0.24,0.672 l 0,-2.88 m -0.48,-13.92 c -2e-5,0.16003 -2e-5,0.43203 0,0.816 -2e-5,0.38403 -2e-5,0.80003 0,1.248 0.032,0.41603 0.048,0.81603 0.048,1.2 -3e-5,0.38403 -3e-5,0.65603 0,0.816 -3e-5,0.25603 -3e-5,0.60803 0,1.056 -3e-5,0.44802 -0.016,0.89602 -0.048,1.344 -2e-5,0.41602 -2e-5,0.80002 0,1.152 -2e-5,0.32002 -2e-5,0.49602 0,0.528 -2e-5,0.096 -0.032,0.33602 -0.096,0.72 -0.032,0.38402 -0.096,0.81602 -0.192,1.296 -0.064,0.44802 -0.16002,0.86402 -0.288,1.248 -0.12802,0.35202 -0.25602,0.54402 -0.384,0.576 -2e-5,-0.15998 -2e-5,-0.44798 0,-0.864 -2e-5,-0.44798 -0.016,-0.91198 -0.048,-1.392 -2e-5,-0.51198 -2e-5,-0.97598 0,-1.392 -2e-5,-0.44798 -2e-5,-0.75198 0,-0.912 -2e-5,-1.15198 -0.016,-2.31998 -0.048,-3.504 -2e-5,-1.18397 0.19198,-2.33597 0.576,-3.456 0.032,-0.064 0.096,-0.14397 0.192,-0.24 0.12798,-0.12797 0.22398,-0.20797 0.288,-0.24"
         style="font-size:48px;font-variant:normal;font-stretch:normal;font-family:Incubus;-inkscape-font-specification:Incubus"
         id="path3068" />
    </g>
    <g
       id="g3017"
       transform="matrix(0.99870637,0.05084866,-0.05084866,0.99870637,28.360163,-15.26252)">
      <path
         style="fill:#000000;fill-rule:evenodd;stroke:none"
         d="m 187.27733,574.67541 2.5882,9.65926 248.0305,-71.63596 z"
         id="path3009" />
      <path
         style="fill:#000000;fill-rule:evenodd;stroke:none"
         d="m 191.07143,586.79075 249.93475,-61.79343 -2.5882,-9.65926 z"
         id="path3013" />
    </g>
  </g>
</svg>
